<svg width="35" height="35" viewBox="0 0 35 35" fill="none" xmlns="http://www.w3.org/2000/svg">
<circle cx="17.5" cy="17.5" r="17.5" fill="#FA7596"/>
<path d="M12.5554 24.9111V22.9427L16.4159 18.9102C17.1803 18.1075 17.7664 17.4704 18.1741 16.999C18.5946 16.5149 18.8876 16.1008 19.0532 15.7568C19.2189 15.4128 19.3017 15.0624 19.3017 14.7057C19.3017 14.1068 19.1106 13.6354 18.7283 13.2914C18.3589 12.9474 17.8811 12.7754 17.295 12.7754C16.6834 12.7754 16.1547 12.9538 15.7087 13.3105C15.2628 13.6545 14.9379 14.1642 14.7341 14.8395L12.4598 14.1323C12.6127 13.3806 12.9249 12.7308 13.3963 12.183C13.8677 11.6224 14.441 11.1956 15.1163 10.9025C15.8043 10.5967 16.5305 10.4438 17.295 10.4438C18.2123 10.4438 19.015 10.6095 19.703 10.9407C20.4038 11.272 20.9453 11.737 21.3275 12.3359C21.7225 12.9347 21.9199 13.6354 21.9199 14.4381C21.9199 14.9477 21.8244 15.451 21.6333 15.9479C21.4422 16.4448 21.1555 16.9544 20.7733 17.4768C20.391 17.9865 19.8941 18.5598 19.2826 19.1968L15.9381 22.7133H22.111V24.9111H12.5554Z" fill="white"/>
</svg>
