<svg width="35" height="35" viewBox="0 0 35 35" fill="none" xmlns="http://www.w3.org/2000/svg">
<circle cx="17.5" cy="17.5" r="17.5" fill="#FA7596"/>
<path d="M17.1359 25.1405C16.3587 25.1405 15.6197 25.0003 14.919 24.72C14.231 24.427 13.6385 24.0193 13.1416 23.4969C12.6575 22.9618 12.3262 22.3311 12.1478 21.6049L14.4221 20.8022C14.6514 21.452 15.0018 21.9489 15.4732 22.2929C15.9446 22.6241 16.4989 22.7898 17.1359 22.7898C17.6455 22.7898 18.0851 22.6942 18.4546 22.5031C18.8368 22.312 19.1362 22.0381 19.3528 21.6813C19.5694 21.3118 19.6777 20.8786 19.6777 20.3817C19.6777 19.8848 19.5694 19.4644 19.3528 19.1204C19.149 18.7636 18.8559 18.4897 18.4737 18.2986C18.0915 18.1075 17.6392 18.0119 17.1168 18.0119C16.8747 18.0119 16.6199 18.0374 16.3523 18.0884C16.0975 18.1393 15.8682 18.2158 15.6643 18.3177L15.0719 17.0755L18.7604 12.871H12.9505V10.6732H21.6844V12.7181L17.9768 17.0564L18.015 16.0817C18.8687 16.0944 19.614 16.2792 20.2511 16.6359C20.8881 16.9927 21.385 17.4832 21.7417 18.1075C22.0985 18.7318 22.2769 19.4644 22.2769 20.3053C22.2769 21.2226 22.0539 22.0508 21.608 22.7898C21.162 23.516 20.5505 24.0893 19.7733 24.5098C18.9961 24.9302 18.117 25.1405 17.1359 25.1405Z" fill="white"/>
</svg>
