<svg width="63" height="165" viewBox="0 0 63 165" fill="none" xmlns="http://www.w3.org/2000/svg">
<path d="M60.5513 150.455C50.8458 152.964 41.961 158.128 32.2932 160.562C30.6541 160.975 25.7058 163.573 24.0201 162.919M24.0201 162.919C21.832 162.068 22.6614 155.862 22.8141 154.409C23.5842 147.08 25.0446 134.313 26.746 126.445M24.0201 162.919C43.5998 143.867 54.3078 102.033 35.7852 85.4818M35.7852 85.4818C30.8813 81.0998 23.9286 78.4901 14.5492 78.5443C-3.18486 78.6475 -0.905288 102.235 15.4043 102.549C24.409 102.722 31.5464 93.7935 35.7852 85.4818ZM35.7852 85.4818C37.0027 83.0945 37.981 80.7581 38.6958 78.7027C47.558 53.2206 37.0709 19.9787 17.1427 2.57384" stroke="#B79EFF" stroke-width="3.87223" stroke-miterlimit="1.5" stroke-linecap="round" stroke-linejoin="round"/>
</svg>
