<svg width="83" height="21" viewBox="0 0 83 21" fill="none" xmlns="http://www.w3.org/2000/svg">
<path d="M1.38135 9.35701C0.633322 9.35701 0.0269282 9.9634 0.0269282 10.7114C0.0269282 11.4595 0.633322 12.0658 1.38135 12.0658V9.35701ZM82.2498 11.6691C82.7787 11.1402 82.7787 10.2826 82.2498 9.75371L73.6303 1.13423C73.1014 0.6053 72.2438 0.6053 71.7149 1.13423C71.186 1.66317 71.186 2.52074 71.7149 3.04967L79.3766 10.7114L71.7149 18.3732C71.186 18.9021 71.186 19.7597 71.7149 20.2886C72.2438 20.8176 73.1014 20.8176 73.6303 20.2886L82.2498 11.6691ZM1.38135 12.0658H81.2921V9.35701H1.38135V12.0658Z" fill="white"/>
</svg>
