<svg width="37" height="40" viewBox="0 0 37 40" fill="none" xmlns="http://www.w3.org/2000/svg">
<path d="M15.021 9.51025L16.3808 15.0783" stroke="#FA7596" stroke-width="2.5474" stroke-linecap="round" stroke-linejoin="round"/>
<path d="M24.1532 25.7235L19.0258 30.9277C17.7244 32.2486 15.4785 31.629 15.0386 29.8276L13.347 22.9014C12.9236 21.1678 14.4971 19.6067 16.2272 20.0436L23.0462 21.7656C24.8208 22.2138 25.4378 24.4198 24.1532 25.7235Z" fill="url(#paint0_linear_127_226)"/>
<path d="M17.2022 5.91832C17.5916 7.51282 16.6147 9.1211 15.0202 9.51052C13.4257 9.89994 11.8174 8.92303 11.428 7.32853C11.0386 5.734 12.0155 4.12572 13.61 3.7363C15.2045 3.34688 16.8128 4.32379 17.2022 5.91832Z" stroke="#C71DFF" stroke-width="2.5474" stroke-linecap="round" stroke-linejoin="round"/>
<path d="M6.64816 34.2819L3.97877 23.3519C3.3112 20.6185 4.98591 17.8614 7.71936 17.1938L25.042 12.9632C27.7756 12.2956 30.5326 13.9703 31.2001 16.7038L33.8695 27.6338C34.5371 30.3673 32.8625 33.1243 30.1289 33.7919L12.8062 38.0225C10.0728 38.6901 7.31575 37.0154 6.64816 34.2819Z" stroke="url(#paint1_linear_127_226)" stroke-width="2.5474" stroke-linecap="round" stroke-linejoin="round"/>
<path d="M25.6768 3.61726C25.7447 3.24918 26.2156 3.13416 26.4455 3.42954L27.4244 4.68752C27.4897 4.77141 27.5835 4.82839 27.688 4.84765L29.2556 5.13649C29.6237 5.20431 29.7387 5.67528 29.4433 5.90513L28.1854 6.88405C28.1015 6.94933 28.0445 7.04314 28.0252 7.14768L27.7364 8.71527C27.6686 9.08335 27.1976 9.19837 26.9678 8.90299L25.9888 7.64502C25.9236 7.56113 25.8297 7.50414 25.7252 7.48488L24.1576 7.19604C23.7895 7.12822 23.6745 6.65726 23.9699 6.4274L25.2279 5.44849C25.3118 5.38321 25.3687 5.28939 25.388 5.18486L25.6768 3.61726Z" fill="#C71DFF"/>
<defs>
<linearGradient id="paint0_linear_127_226" x1="18.8964" y1="17.4974" x2="22.5285" y2="32.3691" gradientUnits="userSpaceOnUse">
<stop stop-color="#C08AFF"/>
<stop offset="1" stop-color="#FA7596"/>
</linearGradient>
<linearGradient id="paint1_linear_127_226" x1="16.3807" y1="15.0785" x2="21.4676" y2="35.9072" gradientUnits="userSpaceOnUse">
<stop stop-color="#C71DFF"/>
<stop offset="1" stop-color="#B79EFF"/>
</linearGradient>
</defs>
</svg>
