<svg width="582" height="108" viewBox="0 0 582 108" fill="none" xmlns="http://www.w3.org/2000/svg">
<path d="M267.904 59.5706C267.904 56.0909 268.688 52.9694 270.257 50.2061C271.827 47.4087 273.959 45.2253 276.654 43.656C279.383 42.0868 282.402 41.3021 285.711 41.3021C289.601 41.3021 292.995 42.2403 295.895 44.1166C298.794 45.9929 300.91 48.6539 302.24 52.0995H296.662C295.673 49.9502 294.24 48.2957 292.364 47.1358C290.522 45.9759 288.304 45.3959 285.711 45.3959C283.221 45.3959 280.987 45.9759 279.008 47.1358C277.029 48.2957 275.477 49.9502 274.351 52.0995C273.225 54.2146 272.663 56.705 272.663 59.5706C272.663 62.4021 273.225 64.8925 274.351 67.0417C275.477 69.1569 277.029 70.7944 279.008 71.9543C280.987 73.1142 283.221 73.6941 285.711 73.6941C288.304 73.6941 290.522 73.1312 292.364 72.0054C294.24 70.8455 295.673 69.191 296.662 67.0417H302.24C300.91 70.4532 298.794 73.0971 295.895 74.9734C292.995 76.8156 289.601 77.7367 285.711 77.7367C282.402 77.7367 279.383 76.9691 276.654 75.434C273.959 73.8647 271.827 71.6984 270.257 68.9351C268.688 66.1718 267.904 63.0503 267.904 59.5706ZM313.829 39.5623V77.4297H309.172V39.5623H313.829ZM324.17 44.833C323.283 44.833 322.533 44.526 321.919 43.9119C321.304 43.2978 320.997 42.5473 320.997 41.6603C320.997 40.7733 321.304 40.0228 321.919 39.4088C322.533 38.7947 323.283 38.4877 324.17 38.4877C325.023 38.4877 325.739 38.7947 326.319 39.4088C326.933 40.0228 327.24 40.7733 327.24 41.6603C327.24 42.5473 326.933 43.2978 326.319 43.9119C325.739 44.526 325.023 44.833 324.17 44.833ZM326.422 49.3873V77.4297H321.765V49.3873H326.422ZM339.015 54.5557C339.936 52.9523 341.301 51.6219 343.109 50.5643C344.951 49.4726 347.083 48.9268 349.505 48.9268C351.996 48.9268 354.247 49.5238 356.26 50.7178C358.307 51.9118 359.91 53.6005 361.07 55.7839C362.23 57.9331 362.81 60.4405 362.81 63.3062C362.81 66.1377 362.23 68.6622 361.07 70.8796C359.91 73.0971 358.307 74.8199 356.26 76.048C354.247 77.2762 351.996 77.8902 349.505 77.8902C347.117 77.8902 345.002 77.3615 343.16 76.3039C341.352 75.2122 339.97 73.8647 339.015 72.2613V90.7345H334.358V49.3873H339.015V54.5557ZM358.051 63.3062C358.051 61.191 357.624 59.3489 356.772 57.7796C355.919 56.2103 354.759 55.0163 353.292 54.1975C351.859 53.3788 350.273 52.9694 348.533 52.9694C346.827 52.9694 345.241 53.3958 343.774 54.2487C342.341 55.0674 341.181 56.2785 340.294 57.8819C339.441 59.4512 339.015 61.2763 339.015 63.3573C339.015 65.4725 339.441 67.3317 340.294 68.9351C341.181 70.5044 342.341 71.7155 343.774 72.5683C345.241 73.3871 346.827 73.7965 348.533 73.7965C350.273 73.7965 351.859 73.3871 353.292 72.5683C354.759 71.7155 355.919 70.5044 356.772 68.9351C357.624 67.3317 358.051 65.4554 358.051 63.3062ZM378.867 77.8902C376.718 77.8902 374.79 77.532 373.084 76.8156C371.379 76.0651 370.031 75.0417 369.042 73.7453C368.052 72.4148 367.507 70.8967 367.404 69.191H372.214C372.351 70.5897 372.999 71.7325 374.159 72.6195C375.353 73.5065 376.905 73.95 378.816 73.95C380.59 73.95 381.988 73.5577 383.012 72.773C384.035 71.9884 384.547 70.9991 384.547 69.805C384.547 68.5769 384.001 67.6729 382.909 67.0929C381.818 66.4788 380.129 65.8818 377.843 65.3019C375.762 64.756 374.057 64.2102 372.726 63.6644C371.43 63.0844 370.304 62.2486 369.349 61.1569C368.428 60.0311 367.967 58.5642 367.967 56.7561C367.967 55.3233 368.394 54.0099 369.246 52.8159C370.099 51.6219 371.31 50.6837 372.88 50.0014C374.449 49.285 376.24 48.9268 378.253 48.9268C381.357 48.9268 383.865 49.7114 385.775 51.2807C387.685 52.85 388.709 54.9992 388.845 57.7284H384.189C384.086 56.2615 383.489 55.0845 382.398 54.1975C381.34 53.3105 379.907 52.867 378.099 52.867C376.428 52.867 375.097 53.2252 374.108 53.9417C373.118 54.6581 372.624 55.5962 372.624 56.7561C372.624 57.6772 372.914 58.4448 373.494 59.0589C374.108 59.6388 374.858 60.1164 375.745 60.4917C376.666 60.8328 377.929 61.2252 379.532 61.6687C381.545 62.2145 383.182 62.7603 384.445 63.3062C385.707 63.8179 386.781 64.6025 387.668 65.6601C388.59 66.7176 389.067 68.0993 389.101 69.805C389.101 71.3402 388.675 72.7218 387.822 73.95C386.969 75.1781 385.758 76.1504 384.189 76.8668C382.654 77.5491 380.88 77.8902 378.867 77.8902ZM431.854 42.0185V77.4297H427.197V51.0248L415.427 77.4297H412.152L400.332 50.9737V77.4297H395.675V42.0185H400.69L413.79 71.289L426.89 42.0185H431.854ZM438.011 63.3062C438.011 60.4405 438.591 57.9331 439.751 55.7839C440.911 53.6005 442.497 51.9118 444.51 50.7178C446.557 49.5238 448.825 48.9268 451.316 48.9268C453.772 48.9268 455.904 49.4556 457.712 50.5131C459.52 51.5707 460.868 52.9012 461.755 54.5046V49.3873H466.463V77.4297H461.755V72.2101C460.834 73.8476 459.452 75.2122 457.61 76.3039C455.802 77.3615 453.687 77.8902 451.265 77.8902C448.774 77.8902 446.523 77.2762 444.51 76.048C442.497 74.8199 440.911 73.0971 439.751 70.8796C438.591 68.6622 438.011 66.1377 438.011 63.3062ZM461.755 63.3573C461.755 61.2422 461.328 59.4 460.476 57.8307C459.623 56.2615 458.463 55.0674 456.996 54.2487C455.563 53.3958 453.977 52.9694 452.237 52.9694C450.497 52.9694 448.911 53.3788 447.478 54.1975C446.045 55.0163 444.902 56.2103 444.049 57.7796C443.196 59.3489 442.77 61.191 442.77 63.3062C442.77 65.4554 443.196 67.3317 444.049 68.9351C444.902 70.5044 446.045 71.7155 447.478 72.5683C448.911 73.3871 450.497 73.7965 452.237 73.7965C453.977 73.7965 455.563 73.3871 456.996 72.5683C458.463 71.7155 459.623 70.5044 460.476 68.9351C461.328 67.3317 461.755 65.4725 461.755 63.3573ZM480.012 53.2252V69.7539C480.012 71.1185 480.302 72.0907 480.882 72.6707C481.462 73.2165 482.468 73.4894 483.901 73.4894H487.33V77.4297H483.134C480.541 77.4297 478.596 76.8327 477.3 75.6387C476.004 74.4446 475.356 72.483 475.356 69.7539V53.2252H471.722V49.3873H475.356V42.3256H480.012V49.3873H487.33V53.2252H480.012ZM518.558 62.3339C518.558 63.2209 518.507 64.159 518.405 65.1484H495.991C496.162 67.9117 497.1 70.078 498.806 71.6472C500.545 73.1824 502.643 73.95 505.1 73.95C507.113 73.95 508.784 73.4894 510.115 72.5683C511.479 71.6131 512.434 70.3509 512.98 68.7816H517.995C517.245 71.4767 515.744 73.6771 513.492 75.3828C511.24 77.0544 508.443 77.8902 505.1 77.8902C502.439 77.8902 500.051 77.2932 497.936 76.0992C495.855 74.9052 494.217 73.2165 493.023 71.0332C491.829 68.8157 491.232 66.2571 491.232 63.3573C491.232 60.4576 491.812 57.916 492.972 55.7327C494.132 53.5493 495.752 51.8777 497.833 50.7178C499.948 49.5238 502.371 48.9268 505.1 48.9268C507.761 48.9268 510.115 49.5067 512.162 50.6666C514.208 51.8265 515.778 53.4299 516.869 55.4768C517.995 57.4896 518.558 59.7753 518.558 62.3339ZM513.748 61.3616C513.748 59.5877 513.356 58.0695 512.571 56.8073C511.786 55.5109 510.712 54.5387 509.347 53.8905C508.017 53.2082 506.533 52.867 504.895 52.867C502.541 52.867 500.528 53.6176 498.857 55.1186C497.219 56.6197 496.281 58.7007 496.042 61.3616H513.748Z" fill="black"/>
<path d="M559.43 69.498H543.874L541.008 77.4297H536.096L548.991 41.9674H554.364L567.208 77.4297H562.296L559.43 69.498ZM558.1 65.7113L551.652 47.6987L545.204 65.7113H558.1ZM577.485 41.7627V77.4297H572.829V41.7627H577.485Z" fill="#B79EFF"/>
<path d="M11.2579 77.8311L1.43282 42.0105H6.03832L13.7653 72.7138L22.5158 42.0105H27.3259L35.8717 72.8162L43.701 42.0105H48.3065L38.2768 77.8311H33.3643L24.8185 48.2024L16.0681 77.8311H11.2579ZM59.1498 78.4451C57.103 78.4451 55.3972 78.0699 54.0326 77.3193C52.668 76.5347 51.6446 75.5112 50.9623 74.249C50.28 72.9526 49.9388 71.571 49.9388 70.1041C49.9388 68.3301 50.3823 66.829 51.2693 65.6009C52.1904 64.3387 53.4697 63.3834 55.1072 62.7353C56.7447 62.0871 58.6552 61.763 60.8385 61.763H67.5421C67.5421 60.0231 67.3374 58.5733 66.928 57.4134C66.5186 56.2535 65.8534 55.3835 64.9323 54.8036C64.0112 54.2236 62.7831 53.9336 61.2479 53.9336C59.7127 53.9336 58.3993 54.326 57.3076 55.1106C56.216 55.8611 55.5337 56.9869 55.2608 58.488H50.8599C51.0646 56.714 51.6616 55.23 52.651 54.036C53.6403 52.8079 54.8855 51.8868 56.3865 51.2727C57.9217 50.6245 59.5422 50.3004 61.2479 50.3004C63.67 50.3004 65.6658 50.7439 67.235 51.6309C68.8043 52.4838 69.9642 53.6948 70.7148 55.2641C71.4653 56.7993 71.8405 58.6244 71.8405 60.7395V77.8311H68.0026L67.7468 73.2256C67.4056 73.942 66.9621 74.6243 66.4163 75.2724C65.9046 75.8865 65.2905 76.4323 64.5741 76.91C63.8577 77.3876 63.0389 77.7628 62.1178 78.0357C61.2308 78.3087 60.2415 78.4451 59.1498 78.4451ZM59.7639 74.8119C60.8897 74.8119 61.9302 74.556 62.8854 74.0443C63.8406 73.5326 64.6594 72.8503 65.3417 71.9974C66.0581 71.1104 66.6039 70.1211 66.9792 69.0294C67.3544 67.9378 67.5421 66.7949 67.5421 65.6009V65.0892H61.1967C59.5933 65.0892 58.2799 65.2939 57.2565 65.7032C56.2671 66.1126 55.5507 66.6926 55.1072 67.4431C54.6637 68.1595 54.442 68.9783 54.442 69.8994C54.442 70.8887 54.6467 71.7586 55.0561 72.5091C55.4654 73.2256 56.0625 73.7885 56.8471 74.1978C57.6658 74.6072 58.6381 74.8119 59.7639 74.8119ZM88.6818 77.8311C87.1466 77.8311 85.8161 77.5923 84.6904 77.1146C83.5646 76.637 82.6946 75.8353 82.0806 74.7096C81.5006 73.5496 81.2106 71.9974 81.2106 70.0529V54.5477H76.5028V50.9145H81.2106L81.7735 44.2109H85.5091V50.9145H93.1338V54.5477H85.5091V70.0529C85.5091 71.6563 85.8332 72.748 86.4814 73.3279C87.1296 73.8737 88.2724 74.1467 89.9099 74.1467H93.0314V77.8311H88.6818ZM109.948 78.4451C107.492 78.4451 105.308 77.8652 103.398 76.7053C101.487 75.5112 99.9863 73.8567 98.8946 71.7416C97.803 69.6264 97.2571 67.1702 97.2571 64.3728C97.2571 61.5412 97.803 59.085 98.8946 57.004C99.9863 54.8889 101.487 53.2514 103.398 52.0914C105.308 50.8974 107.492 50.3004 109.948 50.3004C113.018 50.3004 115.577 51.1192 117.624 52.7567C119.705 54.3942 121.035 56.5946 121.615 59.3579H117.214C116.839 57.6522 115.969 56.3387 114.604 55.4176C113.274 54.4624 111.705 53.9848 109.897 53.9848C108.327 53.9848 106.912 54.3771 105.649 55.1618C104.421 55.9464 103.449 57.1063 102.733 58.6415C102.016 60.1767 101.658 62.0871 101.658 64.3728C101.658 66.0785 101.863 67.5966 102.272 68.9271C102.681 70.2235 103.244 71.3151 103.961 72.2021C104.711 73.055 105.581 73.7032 106.57 74.1467C107.594 74.5901 108.703 74.8119 109.897 74.8119C111.125 74.8119 112.234 74.6072 113.223 74.1978C114.246 73.7543 115.099 73.1232 115.781 72.3045C116.498 71.4857 116.975 70.5134 117.214 69.3876H121.615C121.069 72.0827 119.739 74.2661 117.624 75.9377C115.543 77.6093 112.984 78.4451 109.948 78.4451ZM127.866 77.8311V40.9871H132.164V55.2641C133.051 53.729 134.262 52.5179 135.797 51.6309C137.333 50.7439 138.987 50.3004 140.761 50.3004C142.842 50.3004 144.599 50.6927 146.032 51.4774C147.499 52.2279 148.607 53.3878 149.358 54.9571C150.143 56.5264 150.535 58.5221 150.535 60.9442V77.8311H146.288V61.4048C146.288 58.9485 145.708 57.1063 144.548 55.8782C143.388 54.6159 141.819 53.9848 139.84 53.9848C138.441 53.9848 137.162 54.326 136.002 55.0083C134.842 55.6564 133.904 56.6287 133.188 57.9251C132.505 59.2214 132.164 60.7907 132.164 62.6329V77.8311H127.866Z" fill="black"/>
<path d="M198.284 25.9814L201.969 41.0701" stroke="#FA7596" stroke-width="6.90318" stroke-linecap="round" stroke-linejoin="round"/>
<path d="M223.032 69.9174L209.137 84.0201C205.61 87.5996 199.524 85.9204 198.332 81.0389L193.748 62.2696C192.601 57.5719 196.865 53.3413 201.553 54.5253L220.032 59.1918C224.841 60.4062 226.513 66.3842 223.032 69.9174Z" fill="url(#paint0_linear_240_1008)"/>
<path d="M204.195 16.2493C205.25 20.5703 202.603 24.9285 198.282 25.9838C193.961 27.0391 189.603 24.3918 188.547 20.0709C187.492 15.7499 190.139 11.3916 194.46 10.3363C198.781 9.28102 203.139 11.9283 204.195 16.2493Z" stroke="#C71DFF" stroke-width="6.90318" stroke-linecap="round" stroke-linejoin="round"/>
<path d="M175.594 93.1104L168.361 63.4913C166.551 56.0839 171.09 48.6126 178.497 46.8035L225.44 35.3389C232.847 33.5298 240.318 38.0682 242.127 45.4755L249.361 75.0946C251.17 82.5022 246.632 89.9733 239.225 91.7824L192.282 103.247C184.875 105.056 177.403 100.518 175.594 93.1104Z" stroke="url(#paint1_linear_240_1008)" stroke-width="6.90318" stroke-linecap="round" stroke-linejoin="round"/>
<path d="M227.16 10.0134C227.344 9.016 228.62 8.70431 229.243 9.50475L231.896 12.9137C232.073 13.1411 232.327 13.2955 232.61 13.3477L236.858 14.1304C237.856 14.3142 238.167 15.5904 237.367 16.2133L233.958 18.8661C233.731 19.043 233.576 19.2972 233.524 19.5805L232.741 23.8285C232.557 24.826 231.281 25.1376 230.658 24.3372L228.006 20.9282C227.829 20.7009 227.574 20.5465 227.291 20.4943L223.043 19.7115C222.046 19.5278 221.734 18.2515 222.534 17.6286L225.943 14.9759C226.171 14.799 226.325 14.5447 226.377 14.2615L227.16 10.0134Z" fill="#C71DFF"/>
<defs>
<linearGradient id="paint0_linear_240_1008" x1="208.786" y1="47.6254" x2="218.629" y2="87.926" gradientUnits="userSpaceOnUse">
<stop stop-color="#C08AFF"/>
<stop offset="1" stop-color="#FA7596"/>
</linearGradient>
<linearGradient id="paint1_linear_240_1008" x1="201.968" y1="41.0712" x2="215.753" y2="97.5147" gradientUnits="userSpaceOnUse">
<stop stop-color="#C71DFF"/>
<stop offset="1" stop-color="#B79EFF"/>
</linearGradient>
</defs>
</svg>
