<svg width="279" height="72" viewBox="0 0 279 72" fill="none" xmlns="http://www.w3.org/2000/svg">
<path d="M1.15356 35.8909C1.15356 16.6212 16.7747 1 36.0444 1H242.955C262.225 1 277.846 16.6212 277.846 35.8909C277.846 55.1606 262.225 70.7817 242.955 70.7817H36.0445C16.7748 70.7817 1.15356 55.1606 1.15356 35.8909Z" fill="white" fill-opacity="0.1"/>
<path d="M36.0444 0.573068C16.539 0.573068 0.726633 16.3854 0.726633 35.8909C0.726633 55.3963 16.539 71.2087 36.0445 71.2087H242.955C262.461 71.2087 278.273 55.3963 278.273 35.8909C278.273 16.3854 262.461 0.573068 242.955 0.573068H36.0444Z" stroke="#B79EFF" stroke-opacity="0.4" stroke-width="0.853864"/>
<path d="M85.6134 36.0374C85.6134 34.1925 86.0295 32.5374 86.8615 31.0723C87.6935 29.5891 88.824 28.4315 90.2529 27.5995C91.7 26.7674 93.3007 26.3514 95.0552 26.3514C97.1173 26.3514 98.917 26.8488 100.454 27.8437C101.992 28.8385 103.113 30.2493 103.819 32.0762H100.861C100.337 30.9367 99.5772 30.0594 98.5824 29.4444C97.6056 28.8294 96.4299 28.5219 95.0552 28.5219C93.7348 28.5219 92.5501 28.8294 91.501 29.4444C90.4519 30.0594 89.6289 30.9367 89.032 32.0762C88.4351 33.1976 88.1367 34.518 88.1367 36.0374C88.1367 37.5387 88.4351 38.8591 89.032 39.9986C89.6289 41.1201 90.4519 41.9883 91.501 42.6033C92.5501 43.2182 93.7348 43.5257 95.0552 43.5257C96.4299 43.5257 97.6056 43.2273 98.5824 42.6304C99.5772 42.0154 100.337 41.1382 100.861 39.9986H103.819C103.113 41.8074 101.992 43.2092 100.454 44.204C98.917 45.1808 97.1173 45.6691 95.0552 45.6691C93.3007 45.6691 91.7 45.2622 90.2529 44.4482C88.824 43.6162 87.6935 42.4676 86.8615 41.0025C86.0295 39.5374 85.6134 37.8824 85.6134 36.0374ZM109.963 25.4289V45.5063H107.494V25.4289H109.963ZM115.446 28.2235C114.976 28.2235 114.578 28.0607 114.252 27.7351C113.927 27.4095 113.764 27.0116 113.764 26.5413C113.764 26.0711 113.927 25.6731 114.252 25.3475C114.578 25.022 114.976 24.8592 115.446 24.8592C115.898 24.8592 116.278 25.022 116.586 25.3475C116.911 25.6731 117.074 26.0711 117.074 26.5413C117.074 27.0116 116.911 27.4095 116.586 27.7351C116.278 28.0607 115.898 28.2235 115.446 28.2235ZM116.64 30.6382V45.5063H114.171V30.6382H116.64ZM123.317 33.3785C123.805 32.5284 124.529 31.823 125.487 31.2622C126.464 30.6834 127.595 30.394 128.879 30.394C130.199 30.394 131.393 30.7106 132.46 31.3436C133.545 31.9767 134.396 32.872 135.011 34.0297C135.626 35.1692 135.933 36.4986 135.933 38.018C135.933 39.5193 135.626 40.8578 135.011 42.0335C134.396 43.2092 133.545 44.1226 132.46 44.7738C131.393 45.425 130.199 45.7505 128.879 45.7505C127.613 45.7505 126.491 45.4702 125.515 44.9095C124.556 44.3306 123.823 43.6162 123.317 42.7661V52.5606H120.848V30.6382H123.317V33.3785ZM133.41 38.018C133.41 36.8966 133.184 35.9198 132.732 35.0878C132.279 34.2558 131.664 33.6227 130.887 33.1886C130.127 32.7545 129.286 32.5374 128.363 32.5374C127.459 32.5374 126.618 32.7635 125.84 33.2157C125.08 33.6498 124.465 34.2919 123.995 35.1421C123.543 35.9741 123.317 36.9418 123.317 38.0451C123.317 39.1666 123.543 40.1524 123.995 41.0025C124.465 41.8345 125.08 42.4766 125.84 42.9288C126.618 43.3629 127.459 43.58 128.363 43.58C129.286 43.58 130.127 43.3629 130.887 42.9288C131.664 42.4766 132.279 41.8345 132.732 41.0025C133.184 40.1524 133.41 39.1575 133.41 38.018ZM144.446 45.7505C143.307 45.7505 142.285 45.5606 141.381 45.1808C140.476 44.7828 139.762 44.2402 139.237 43.5529C138.713 42.8474 138.423 42.0425 138.369 41.1382H140.919C140.992 41.8798 141.335 42.4857 141.95 42.956C142.583 43.4263 143.406 43.6614 144.419 43.6614C145.36 43.6614 146.102 43.4534 146.644 43.0374C147.187 42.6214 147.458 42.0968 147.458 41.4637C147.458 40.8126 147.169 40.3332 146.59 40.0258C146.011 39.7002 145.116 39.3836 143.904 39.0761C142.8 38.7867 141.896 38.4973 141.191 38.2079C140.503 37.9004 139.906 37.4573 139.4 36.8785C138.912 36.2816 138.667 35.5038 138.667 34.5452C138.667 33.7855 138.894 33.0891 139.346 32.456C139.798 31.823 140.44 31.3255 141.272 30.9638C142.104 30.5839 143.054 30.394 144.121 30.394C145.767 30.394 147.096 30.81 148.109 31.6421C149.122 32.4741 149.665 33.6136 149.737 35.0607H147.268C147.214 34.2829 146.897 33.6589 146.319 33.1886C145.758 32.7183 144.998 32.4832 144.04 32.4832C143.153 32.4832 142.448 32.6731 141.923 33.0529C141.399 33.4328 141.136 33.9302 141.136 34.5452C141.136 35.0335 141.29 35.4405 141.598 35.7661C141.923 36.0736 142.321 36.3268 142.791 36.5258C143.28 36.7067 143.949 36.9147 144.799 37.1498C145.866 37.4392 146.735 37.7286 147.404 38.018C148.073 38.2893 148.643 38.7054 149.113 39.2661C149.601 39.8268 149.855 40.5593 149.873 41.4637C149.873 42.2777 149.647 43.0102 149.195 43.6614C148.742 44.3126 148.1 44.8281 147.268 45.2079C146.454 45.5697 145.514 45.7505 144.446 45.7505ZM172.54 26.7313V45.5063H170.071V31.5064L163.831 45.5063H162.095L155.827 31.4793V45.5063H153.358V26.7313H156.017L162.963 42.2506L169.908 26.7313H172.54ZM175.805 38.018C175.805 36.4986 176.112 35.1692 176.727 34.0297C177.342 32.872 178.183 31.9767 179.251 31.3436C180.336 30.7106 181.539 30.394 182.859 30.394C184.161 30.394 185.292 30.6744 186.251 31.2351C187.209 31.7958 187.924 32.5013 188.394 33.3514V30.6382H190.89V45.5063H188.394V42.7389C187.906 43.6071 187.173 44.3306 186.196 44.9095C185.238 45.4702 184.116 45.7505 182.832 45.7505C181.512 45.7505 180.318 45.425 179.251 44.7738C178.183 44.1226 177.342 43.2092 176.727 42.0335C176.112 40.8578 175.805 39.5193 175.805 38.018ZM188.394 38.0451C188.394 36.9237 188.168 35.947 187.716 35.1149C187.264 34.2829 186.649 33.6498 185.871 33.2157C185.111 32.7635 184.27 32.5374 183.348 32.5374C182.425 32.5374 181.584 32.7545 180.824 33.1886C180.065 33.6227 179.459 34.2558 179.006 35.0878C178.554 35.9198 178.328 36.8966 178.328 38.018C178.328 39.1575 178.554 40.1524 179.006 41.0025C179.459 41.8345 180.065 42.4766 180.824 42.9288C181.584 43.3629 182.425 43.58 183.348 43.58C184.27 43.58 185.111 43.3629 185.871 42.9288C186.649 42.4766 187.264 41.8345 187.716 41.0025C188.168 40.1524 188.394 39.1666 188.394 38.0451ZM198.074 32.6731V41.4366C198.074 42.1601 198.228 42.6756 198.535 42.9831C198.843 43.2725 199.376 43.4172 200.136 43.4172H201.954V45.5063H199.729C198.354 45.5063 197.323 45.1898 196.636 44.5567C195.949 43.9237 195.605 42.8836 195.605 41.4366V32.6731H193.679V30.6382H195.605V26.894H198.074V30.6382H201.954V32.6731H198.074ZM218.511 37.5025C218.511 37.9728 218.484 38.4702 218.43 38.9948H206.546C206.637 40.4599 207.134 41.6084 208.038 42.4405C208.961 43.2544 210.073 43.6614 211.376 43.6614C212.443 43.6614 213.329 43.4172 214.034 42.9288C214.758 42.4224 215.264 41.7531 215.554 40.9211H218.213C217.815 42.35 217.019 43.5167 215.825 44.4211C214.631 45.3074 213.148 45.7505 211.376 45.7505C209.965 45.7505 208.699 45.434 207.577 44.8009C206.474 44.1679 205.606 43.2725 204.972 42.1149C204.339 40.9392 204.023 39.5826 204.023 38.0451C204.023 36.5077 204.33 35.1602 204.945 34.0025C205.56 32.8449 206.42 31.9586 207.523 31.3436C208.644 30.7106 209.929 30.394 211.376 30.394C212.786 30.394 214.034 30.7015 215.12 31.3165C216.205 31.9315 217.037 32.7816 217.616 33.8669C218.213 34.9341 218.511 36.1459 218.511 37.5025ZM215.961 36.987C215.961 36.0465 215.753 35.2415 215.337 34.5723C214.921 33.885 214.351 33.3695 213.627 33.0258C212.922 32.664 212.135 32.4832 211.267 32.4832C210.019 32.4832 208.952 32.8811 208.065 33.677C207.197 34.4728 206.7 35.5762 206.573 36.987H215.961Z" fill="white"/>
<path d="M240.182 41.3009H231.934L230.414 45.5063H227.81L234.647 26.7041H237.496L244.306 45.5063H241.701L240.182 41.3009ZM239.476 39.2932L236.058 29.7429L232.639 39.2932H239.476ZM249.755 26.5956V45.5063H247.286V26.5956H249.755Z" fill="#B79EFF"/>
<path d="M48.7012 17.9092L50.655 25.9092" stroke="#FA7596" stroke-width="3.66009" stroke-linecap="round" stroke-linejoin="round"/>
<path d="M61.8224 41.2045L54.4554 48.6818C52.5856 50.5797 49.3587 49.6893 48.7266 47.1012L46.2961 37.1496C45.6878 34.6589 47.9485 32.4158 50.4344 33.0436L60.2318 35.5178C62.7816 36.1617 63.6681 39.3312 61.8224 41.2045Z" fill="url(#paint0_linear_211_145)"/>
<path d="M51.8351 12.7495C52.3946 15.0404 50.991 17.3512 48.7 17.9107C46.409 18.4702 44.0982 17.0666 43.5387 14.7756C42.9792 12.4846 44.3828 10.1739 46.6738 9.61436C48.9648 9.05484 51.2756 10.4585 51.8351 12.7495Z" stroke="#C71DFF" stroke-width="3.66009" stroke-linecap="round" stroke-linejoin="round"/>
<path d="M36.6709 53.5013L32.8356 37.7972C31.8764 33.8698 34.2827 29.9085 38.21 28.9493L63.0991 22.8708C67.0266 21.9116 70.9879 24.3178 71.947 28.2452L75.7824 43.9493C76.7416 47.8768 74.3354 51.838 70.4079 52.7972L45.5188 58.8758C41.5915 59.8349 37.6301 57.4288 36.6709 53.5013Z" stroke="url(#paint1_linear_211_145)" stroke-width="3.66009" stroke-linecap="round" stroke-linejoin="round"/>
<path d="M64.0112 9.44328C64.1086 8.91443 64.7853 8.74916 65.1156 9.17356L66.5221 10.981C66.6159 11.1015 66.7507 11.1834 66.9009 11.2111L69.1532 11.6261C69.682 11.7235 69.8473 12.4002 69.4229 12.7305L67.6154 14.137C67.4949 14.2308 67.413 14.3656 67.3853 14.5157L66.9703 16.7681C66.8729 17.2969 66.1962 17.4622 65.866 17.0378L64.4595 15.2303C64.3657 15.1098 64.2309 15.0279 64.0807 15.0002L61.8284 14.5852C61.2995 14.4878 61.1343 13.8111 61.5587 13.4809L63.3661 12.0744C63.4866 11.9806 63.5685 11.8458 63.5962 11.6956L64.0112 9.44328Z" fill="#C71DFF"/>
<defs>
<linearGradient id="paint0_linear_211_145" x1="54.2695" y1="29.3852" x2="59.488" y2="50.7528" gradientUnits="userSpaceOnUse">
<stop stop-color="#C08AFF"/>
<stop offset="1" stop-color="#FA7596"/>
</linearGradient>
<linearGradient id="paint1_linear_211_145" x1="50.6546" y1="25.91" x2="57.9634" y2="55.8365" gradientUnits="userSpaceOnUse">
<stop stop-color="#C71DFF"/>
<stop offset="1" stop-color="#B79EFF"/>
</linearGradient>
</defs>
</svg>
