<svg width="157" height="40" viewBox="0 0 157 40" fill="none" xmlns="http://www.w3.org/2000/svg">
<path d="M40.7116 22.2473C40.7116 20.9632 41.0012 19.8113 41.5803 18.7916C42.1594 17.7593 42.9462 16.9536 43.9407 16.3745C44.9478 15.7955 46.062 15.5059 47.2831 15.5059C48.7182 15.5059 49.9709 15.8521 51.0409 16.5445C52.111 17.2369 52.8915 18.2188 53.3825 19.4903H51.3242C50.9591 18.6972 50.4303 18.0866 49.738 17.6586C49.0581 17.2306 48.2399 17.0166 47.2831 17.0166C46.3641 17.0166 45.5395 17.2306 44.8094 17.6586C44.0792 18.0866 43.5064 18.6972 43.091 19.4903C42.6755 20.2708 42.4678 21.1898 42.4678 22.2473C42.4678 23.2922 42.6755 24.2112 43.091 25.0043C43.5064 25.7848 44.0792 26.3891 44.8094 26.8171C45.5395 27.2451 46.3641 27.4592 47.2831 27.4592C48.2399 27.4592 49.0581 27.2514 49.738 26.836C50.4303 26.408 50.9591 25.7974 51.3242 25.0043H53.3825C52.8915 26.2632 52.111 27.2388 51.0409 27.9312C49.9709 28.611 48.7182 28.9509 47.2831 28.9509C46.062 28.9509 44.9478 28.6677 43.9407 28.1012C42.9462 27.5221 42.1594 26.7227 41.5803 25.703C41.0012 24.6833 40.7116 23.5314 40.7116 22.2473ZM57.6588 14.8639V28.8376H55.9404V14.8639H57.6588ZM61.4751 16.8089C61.1478 16.8089 60.8708 16.6956 60.6442 16.469C60.4176 16.2424 60.3043 15.9654 60.3043 15.6381C60.3043 15.3108 60.4176 15.0338 60.6442 14.8072C60.8708 14.5806 61.1478 14.4673 61.4751 14.4673C61.7898 14.4673 62.0542 14.5806 62.2682 14.8072C62.4948 15.0338 62.6081 15.3108 62.6081 15.6381C62.6081 15.9654 62.4948 16.2424 62.2682 16.469C62.0542 16.6956 61.7898 16.8089 61.4751 16.8089ZM62.3059 18.4895V28.8376H60.5875V18.4895H62.3059ZM66.9531 20.3967C67.293 19.805 67.7965 19.3141 68.4637 18.9238C69.1435 18.521 69.9304 18.3195 70.8242 18.3195C71.7432 18.3195 72.574 18.5399 73.3168 18.9805C74.0721 19.4211 74.6638 20.0442 75.0918 20.8499C75.5199 21.643 75.7339 22.5683 75.7339 23.6258C75.7339 24.6707 75.5199 25.6023 75.0918 26.4206C74.6638 27.2388 74.0721 27.8746 73.3168 28.3278C72.574 28.781 71.7432 29.0076 70.8242 29.0076C69.9429 29.0076 69.1624 28.8125 68.4826 28.4222C67.8154 28.0194 67.3055 27.5221 66.9531 26.9304V33.7474H65.2347V18.4895H66.9531V20.3967ZM73.9777 23.6258C73.9777 22.8453 73.8203 22.1655 73.5056 21.5864C73.1909 21.0073 72.7629 20.5667 72.2215 20.2645C71.6928 19.9624 71.1074 19.8113 70.4654 19.8113C69.8359 19.8113 69.2505 19.9687 68.7092 20.2834C68.1805 20.5856 67.7525 21.0325 67.4251 21.6242C67.1104 22.2032 66.9531 22.8768 66.9531 23.6447C66.9531 24.4252 67.1104 25.1113 67.4251 25.703C67.7525 26.2821 68.1805 26.729 68.7092 27.0437C69.2505 27.3459 69.8359 27.4969 70.4654 27.4969C71.1074 27.4969 71.6928 27.3459 72.2215 27.0437C72.7629 26.729 73.1909 26.2821 73.5056 25.703C73.8203 25.1113 73.9777 24.4189 73.9777 23.6258ZM81.6592 29.0076C80.8661 29.0076 80.1548 28.8754 79.5253 28.611C78.8959 28.3341 78.3986 27.9564 78.0335 27.478C77.6684 26.9871 77.467 26.4269 77.4293 25.7974H79.2043C79.2547 26.3136 79.4939 26.7353 79.9219 27.0626C80.3625 27.3899 80.9353 27.5536 81.6403 27.5536C82.2949 27.5536 82.8111 27.4088 83.1887 27.1192C83.5664 26.8297 83.7552 26.4646 83.7552 26.024C83.7552 25.5708 83.5538 25.2372 83.151 25.0232C82.7481 24.7966 82.125 24.5763 81.2815 24.3623C80.5136 24.1608 79.8841 23.9594 79.3931 23.758C78.9148 23.544 78.4993 23.2355 78.1468 22.8327C77.8069 22.4173 77.637 21.8759 77.637 21.2087C77.637 20.68 77.7943 20.1953 78.1091 19.7547C78.4238 19.3141 78.8707 18.9679 79.4498 18.7161C80.0289 18.4517 80.6898 18.3195 81.4326 18.3195C82.5782 18.3195 83.5034 18.6091 84.2084 19.1882C84.9134 19.7673 85.2911 20.5604 85.3414 21.5675H83.623C83.5853 21.0262 83.365 20.5919 82.9621 20.2645C82.5719 19.9372 82.0431 19.7736 81.3759 19.7736C80.759 19.7736 80.2681 19.9058 79.903 20.1701C79.5379 20.4345 79.3554 20.7807 79.3554 21.2087C79.3554 21.5486 79.4624 21.8319 79.6764 22.0585C79.903 22.2725 80.18 22.4487 80.5073 22.5872C80.8472 22.7131 81.313 22.8579 81.9046 23.0215C82.6474 23.223 83.2517 23.4244 83.7175 23.6258C84.1833 23.8146 84.5798 24.1042 84.9071 24.4944C85.247 24.8847 85.4233 25.3946 85.4359 26.024C85.4359 26.5905 85.2785 27.1004 84.9638 27.5536C84.649 28.0068 84.2021 28.3656 83.623 28.6299C83.0565 28.8817 82.4019 29.0076 81.6592 29.0076ZM101.212 15.7703V28.8376H99.4939V19.0938L95.1507 28.8376H93.9421L89.58 19.0749V28.8376H87.8616V15.7703H89.7122L94.5464 26.5716L99.3806 15.7703H101.212ZM103.484 23.6258C103.484 22.5683 103.698 21.643 104.127 20.8499C104.555 20.0442 105.14 19.4211 105.883 18.9805C106.638 18.5399 107.475 18.3195 108.394 18.3195C109.301 18.3195 110.087 18.5147 110.755 18.9049C111.422 19.2952 111.919 19.7862 112.246 20.3778V18.4895H113.984V28.8376H112.246V26.9115C111.907 27.5158 111.397 28.0194 110.717 28.4222C110.05 28.8125 109.269 29.0076 108.375 29.0076C107.456 29.0076 106.625 28.781 105.883 28.3278C105.14 27.8746 104.555 27.2388 104.127 26.4206C103.698 25.6023 103.484 24.6707 103.484 23.6258ZM112.246 23.6447C112.246 22.8642 112.089 22.1844 111.774 21.6053C111.46 21.0262 111.032 20.5856 110.49 20.2834C109.962 19.9687 109.376 19.8113 108.734 19.8113C108.092 19.8113 107.507 19.9624 106.978 20.2645C106.449 20.5667 106.027 21.0073 105.713 21.5864C105.398 22.1655 105.241 22.8453 105.241 23.6258C105.241 24.4189 105.398 25.1113 105.713 25.703C106.027 26.2821 106.449 26.729 106.978 27.0437C107.507 27.3459 108.092 27.4969 108.734 27.4969C109.376 27.4969 109.962 27.3459 110.49 27.0437C111.032 26.729 111.46 26.2821 111.774 25.703C112.089 25.1113 112.246 24.4252 112.246 23.6447ZM118.984 19.9058V26.0051C118.984 26.5087 119.091 26.8675 119.305 27.0815C119.519 27.2829 119.89 27.3836 120.419 27.3836H121.684V28.8376H120.136C119.179 28.8376 118.461 28.6173 117.983 28.1767C117.504 27.7361 117.265 27.0122 117.265 26.0051V19.9058H115.925V18.4895H117.265V15.8836H118.984V18.4895H121.684V19.9058H118.984ZM133.208 23.267C133.208 23.5943 133.189 23.9405 133.151 24.3056H124.88C124.943 25.3253 125.289 26.1247 125.919 26.7038C126.561 27.2703 127.335 27.5536 128.241 27.5536C128.984 27.5536 129.601 27.3836 130.092 27.0437C130.596 26.6912 130.948 26.2254 131.15 25.6463H133C132.723 26.6409 132.169 27.4529 131.338 28.0823C130.507 28.6992 129.475 29.0076 128.241 29.0076C127.26 29.0076 126.378 28.7873 125.598 28.3467C124.83 27.9061 124.226 27.2829 123.785 26.4772C123.344 25.6589 123.124 24.7148 123.124 23.6447C123.124 22.5746 123.338 21.6367 123.766 20.831C124.194 20.0254 124.792 19.4085 125.56 18.9805C126.341 18.5399 127.234 18.3195 128.241 18.3195C129.223 18.3195 130.092 18.5336 130.847 18.9616C131.603 19.3896 132.182 19.9813 132.585 20.7366C133 21.4794 133.208 22.3228 133.208 23.267ZM131.433 22.9082C131.433 22.2536 131.288 21.6934 130.998 21.2276C130.709 20.7492 130.312 20.3904 129.809 20.1512C129.318 19.8995 128.77 19.7736 128.166 19.7736C127.297 19.7736 126.555 20.0505 125.938 20.6044C125.333 21.1584 124.987 21.9263 124.899 22.9082H131.433Z" fill="#36074E"/>
<path d="M148.29 25.9107H142.55L141.492 28.8376H139.68L144.438 15.7514H146.421L151.161 28.8376H149.348L148.29 25.9107ZM147.799 24.5133L145.42 17.8663L143.041 24.5133H147.799ZM154.953 15.6759V28.8376H153.235V15.6759H154.953Z" fill="#B79EFF"/>
<path d="M15.021 9.51025L16.3808 15.0783" stroke="#FA7596" stroke-width="2.5474" stroke-linecap="round" stroke-linejoin="round"/>
<path d="M24.1532 25.7235L19.0258 30.9277C17.7244 32.2486 15.4785 31.629 15.0386 29.8276L13.347 22.9014C12.9236 21.1678 14.4971 19.6067 16.2272 20.0436L23.0462 21.7656C24.8208 22.2138 25.4378 24.4198 24.1532 25.7235Z" fill="url(#paint0_linear_127_224)"/>
<path d="M17.2022 5.91832C17.5916 7.51282 16.6147 9.1211 15.0202 9.51052C13.4257 9.89994 11.8174 8.92303 11.428 7.32853C11.0386 5.734 12.0155 4.12572 13.61 3.7363C15.2045 3.34688 16.8128 4.32379 17.2022 5.91832Z" stroke="#C71DFF" stroke-width="2.5474" stroke-linecap="round" stroke-linejoin="round"/>
<path d="M6.64816 34.2819L3.97877 23.3519C3.3112 20.6185 4.98591 17.8614 7.71936 17.1938L25.042 12.9632C27.7756 12.2956 30.5326 13.9703 31.2001 16.7038L33.8695 27.6338C34.5371 30.3673 32.8625 33.1243 30.1289 33.7919L12.8062 38.0225C10.0728 38.6901 7.31575 37.0154 6.64816 34.2819Z" stroke="url(#paint1_linear_127_224)" stroke-width="2.5474" stroke-linecap="round" stroke-linejoin="round"/>
<path d="M25.6768 3.61726C25.7447 3.24918 26.2156 3.13416 26.4455 3.42954L27.4244 4.68752C27.4897 4.77141 27.5835 4.82839 27.688 4.84765L29.2556 5.13649C29.6237 5.20431 29.7387 5.67528 29.4433 5.90513L28.1854 6.88405C28.1015 6.94933 28.0445 7.04314 28.0252 7.14768L27.7364 8.71527C27.6686 9.08335 27.1976 9.19837 26.9678 8.90299L25.9888 7.64502C25.9236 7.56113 25.8297 7.50414 25.7252 7.48488L24.1576 7.19604C23.7895 7.12822 23.6745 6.65726 23.9699 6.4274L25.2279 5.44849C25.3118 5.38321 25.3687 5.28939 25.388 5.18486L25.6768 3.61726Z" fill="#C71DFF"/>
<defs>
<linearGradient id="paint0_linear_127_224" x1="18.8964" y1="17.4974" x2="22.5285" y2="32.3691" gradientUnits="userSpaceOnUse">
<stop stop-color="#C08AFF"/>
<stop offset="1" stop-color="#FA7596"/>
</linearGradient>
<linearGradient id="paint1_linear_127_224" x1="16.3807" y1="15.0785" x2="21.4676" y2="35.9072" gradientUnits="userSpaceOnUse">
<stop stop-color="#C71DFF"/>
<stop offset="1" stop-color="#B79EFF"/>
</linearGradient>
</defs>
</svg>
