<svg width="1035" height="277" viewBox="0 0 1035 277" fill="none" xmlns="http://www.w3.org/2000/svg">
<path d="M900.438 124.066C914.495 171.199 852.992 148.314 868.63 214.187C877.745 252.583 804.416 235.643 799.055 275.219" stroke="url(#paint0_linear_232_786)" stroke-width="3" stroke-linecap="round"/>
<path d="M905.664 53.8015L605.664 62.5717C599.446 62.7535 594.5 67.8464 594.5 74.0668V115C594.5 121.351 599.649 126.5 606 126.5H906C912.351 126.5 917.5 121.351 917.5 115V65.2966C917.5 58.8137 912.144 53.6121 905.664 53.8015Z" fill="#CE2751" stroke="#B79EFF" stroke-width="3"/>
<path d="M23.9293 46.54C20.9293 46.54 18.3193 45.88 16.0993 44.56C13.8793 43.21 12.1543 41.335 10.9243 38.935C9.69428 36.505 9.07928 33.685 9.07928 30.475C9.07928 27.235 9.70928 24.385 10.9693 21.925C12.2293 19.435 14.0443 17.485 16.4143 16.075C18.7843 14.665 21.6193 13.96 24.9193 13.96C28.6093 13.96 31.6693 14.845 34.0993 16.615C36.5593 18.385 38.1493 20.845 38.8693 23.995H32.0743C31.6243 22.615 30.7843 21.535 29.5543 20.755C28.3543 19.945 26.7943 19.54 24.8743 19.54C22.8343 19.54 21.0943 19.99 19.6543 20.89C18.2143 21.79 17.1193 23.05 16.3693 24.67C15.6193 26.29 15.2443 28.225 15.2443 30.475C15.2443 32.755 15.6193 34.69 16.3693 36.28C17.1193 37.87 18.1843 39.085 19.5643 39.925C20.9743 40.735 22.6243 41.14 24.5143 41.14C27.2743 41.14 29.3593 40.405 30.7693 38.935C32.2093 37.435 33.0643 35.5 33.3343 33.13H25.5943V28.585H39.4543V46H33.8293L33.3793 41.995C32.7193 42.985 31.9393 43.825 31.0393 44.515C30.1693 45.175 29.1493 45.67 27.9793 46C26.8093 46.36 25.4593 46.54 23.9293 46.54ZM55.8937 46.54C53.6137 46.54 51.5887 46.06 49.8187 45.1C48.0787 44.11 46.7137 42.745 45.7237 41.005C44.7637 39.235 44.2837 37.195 44.2837 34.885C44.2837 32.515 44.7637 30.43 45.7237 28.63C46.7137 26.8 48.0787 25.375 49.8187 24.355C51.5587 23.305 53.5837 22.78 55.8937 22.78C58.1437 22.78 60.1087 23.275 61.7887 24.265C63.4687 25.255 64.7737 26.59 65.7037 28.27C66.6337 29.95 67.0987 31.855 67.0987 33.985C67.0987 34.285 67.0987 34.63 67.0987 35.02C67.0987 35.38 67.0687 35.755 67.0087 36.145H48.6037V32.455H60.9787C60.8887 30.985 60.3637 29.83 59.4037 28.99C58.4737 28.15 57.3037 27.73 55.8937 27.73C54.8737 27.73 53.9287 27.97 53.0587 28.45C52.1887 28.9 51.4987 29.605 50.9887 30.565C50.5087 31.525 50.2687 32.74 50.2687 34.21V35.515C50.2687 36.745 50.4937 37.825 50.9437 38.755C51.4237 39.655 52.0837 40.36 52.9237 40.87C53.7637 41.35 54.7387 41.59 55.8487 41.59C56.9587 41.59 57.8737 41.35 58.5937 40.87C59.3437 40.39 59.8987 39.775 60.2587 39.025H66.4687C66.0487 40.435 65.3437 41.71 64.3537 42.85C63.3637 43.99 62.1487 44.89 60.7087 45.55C59.2687 46.21 57.6637 46.54 55.8937 46.54ZM72.074 46V23.32H77.429L77.879 27.01C78.569 25.75 79.544 24.73 80.804 23.95C82.094 23.17 83.624 22.78 85.394 22.78C87.284 22.78 88.874 23.17 90.164 23.95C91.454 24.73 92.429 25.87 93.089 27.37C93.779 28.87 94.124 30.715 94.124 32.905V46H88.094V33.49C88.094 31.69 87.704 30.31 86.924 29.35C86.174 28.39 85.004 27.91 83.414 27.91C82.394 27.91 81.479 28.15 80.669 28.63C79.889 29.11 79.274 29.8 78.824 30.7C78.374 31.57 78.149 32.635 78.149 33.895V46H72.074ZM110.737 46.54C108.457 46.54 106.432 46.06 104.662 45.1C102.922 44.11 101.557 42.745 100.567 41.005C99.6074 39.235 99.1274 37.195 99.1274 34.885C99.1274 32.515 99.6074 30.43 100.567 28.63C101.557 26.8 102.922 25.375 104.662 24.355C106.402 23.305 108.427 22.78 110.737 22.78C112.987 22.78 114.952 23.275 116.632 24.265C118.312 25.255 119.617 26.59 120.547 28.27C121.477 29.95 121.942 31.855 121.942 33.985C121.942 34.285 121.942 34.63 121.942 35.02C121.942 35.38 121.912 35.755 121.852 36.145H103.447V32.455H115.822C115.732 30.985 115.207 29.83 114.247 28.99C113.317 28.15 112.147 27.73 110.737 27.73C109.717 27.73 108.772 27.97 107.902 28.45C107.032 28.9 106.342 29.605 105.832 30.565C105.352 31.525 105.112 32.74 105.112 34.21V35.515C105.112 36.745 105.337 37.825 105.787 38.755C106.267 39.655 106.927 40.36 107.767 40.87C108.607 41.35 109.582 41.59 110.692 41.59C111.802 41.59 112.717 41.35 113.437 40.87C114.187 40.39 114.742 39.775 115.102 39.025H121.312C120.892 40.435 120.187 41.71 119.197 42.85C118.207 43.99 116.992 44.89 115.552 45.55C114.112 46.21 112.507 46.54 110.737 46.54ZM126.918 46V23.32H132.318L132.903 27.505C133.443 26.515 134.118 25.675 134.928 24.985C135.768 24.295 136.713 23.755 137.763 23.365C138.843 22.975 140.028 22.78 141.318 22.78V29.215H139.248C138.348 29.215 137.508 29.32 136.728 29.53C135.978 29.74 135.318 30.085 134.748 30.565C134.178 31.015 133.743 31.645 133.443 32.455C133.143 33.265 132.993 34.285 132.993 35.515V46H126.918ZM152.981 46.54C151.091 46.54 149.531 46.24 148.301 45.64C147.071 45.01 146.156 44.185 145.556 43.165C144.986 42.115 144.701 40.96 144.701 39.7C144.701 38.32 145.046 37.105 145.736 36.055C146.456 35.005 147.521 34.18 148.931 33.58C150.371 32.98 152.171 32.68 154.331 32.68H159.956C159.956 31.57 159.806 30.655 159.506 29.935C159.206 29.185 158.741 28.63 158.111 28.27C157.481 27.91 156.641 27.73 155.591 27.73C154.451 27.73 153.476 27.985 152.666 28.495C151.886 28.975 151.406 29.725 151.226 30.745H145.331C145.481 29.125 146.006 27.73 146.906 26.56C147.836 25.36 149.051 24.43 150.551 23.77C152.081 23.11 153.776 22.78 155.636 22.78C157.766 22.78 159.611 23.14 161.171 23.86C162.731 24.58 163.931 25.615 164.771 26.965C165.611 28.315 166.031 29.98 166.031 31.96V46H160.901L160.226 42.535C159.896 43.135 159.506 43.675 159.056 44.155C158.606 44.635 158.081 45.055 157.481 45.415C156.881 45.775 156.206 46.045 155.456 46.225C154.706 46.435 153.881 46.54 152.981 46.54ZM154.421 41.86C155.201 41.86 155.891 41.725 156.491 41.455C157.121 41.155 157.661 40.765 158.111 40.285C158.561 39.775 158.906 39.205 159.146 38.575C159.416 37.915 159.596 37.21 159.686 36.46V36.415H155.051C154.121 36.415 153.356 36.535 152.756 36.775C152.186 36.985 151.766 37.3 151.496 37.72C151.226 38.14 151.091 38.62 151.091 39.16C151.091 39.76 151.226 40.255 151.496 40.645C151.766 41.035 152.156 41.335 152.666 41.545C153.176 41.755 153.761 41.86 154.421 41.86ZM181.649 46C180.059 46 178.664 45.76 177.464 45.28C176.294 44.77 175.379 43.945 174.719 42.805C174.059 41.635 173.729 40.045 173.729 38.035V28.405H169.859V23.32H173.729L174.404 17.155H179.804V23.32H185.789V28.405H179.804V38.125C179.804 39.145 180.029 39.85 180.479 40.24C180.929 40.63 181.694 40.825 182.774 40.825H185.744V46H181.649ZM201.221 46.54C198.941 46.54 196.916 46.06 195.146 45.1C193.406 44.11 192.041 42.745 191.051 41.005C190.091 39.235 189.611 37.195 189.611 34.885C189.611 32.515 190.091 30.43 191.051 28.63C192.041 26.8 193.406 25.375 195.146 24.355C196.886 23.305 198.911 22.78 201.221 22.78C203.471 22.78 205.436 23.275 207.116 24.265C208.796 25.255 210.101 26.59 211.031 28.27C211.961 29.95 212.426 31.855 212.426 33.985C212.426 34.285 212.426 34.63 212.426 35.02C212.426 35.38 212.396 35.755 212.336 36.145H193.931V32.455H206.306C206.216 30.985 205.691 29.83 204.731 28.99C203.801 28.15 202.631 27.73 201.221 27.73C200.201 27.73 199.256 27.97 198.386 28.45C197.516 28.9 196.826 29.605 196.316 30.565C195.836 31.525 195.596 32.74 195.596 34.21V35.515C195.596 36.745 195.821 37.825 196.271 38.755C196.751 39.655 197.411 40.36 198.251 40.87C199.091 41.35 200.066 41.59 201.176 41.59C202.286 41.59 203.201 41.35 203.921 40.87C204.671 40.39 205.226 39.775 205.586 39.025H211.796C211.376 40.435 210.671 41.71 209.681 42.85C208.691 43.99 207.476 44.89 206.036 45.55C204.596 46.21 202.991 46.54 201.221 46.54ZM225.247 46L235.237 14.5H245.182L255.127 46H248.692L240.322 18.055H240.142L231.592 46H225.247ZM230.332 36.955L231.907 32.23H247.972L249.547 36.955H230.332ZM267.87 46C266.28 46 264.885 45.76 263.685 45.28C262.515 44.77 261.6 43.945 260.94 42.805C260.28 41.635 259.95 40.045 259.95 38.035V28.405H256.08V23.32H259.95L260.625 17.155H266.025V23.32H272.01V28.405H266.025V38.125C266.025 39.145 266.25 39.85 266.7 40.24C267.15 40.63 267.915 40.825 268.995 40.825H271.965V46H267.87ZM287.338 46C285.748 46 284.353 45.76 283.153 45.28C281.983 44.77 281.068 43.945 280.408 42.805C279.748 41.635 279.418 40.045 279.418 38.035V28.405H275.548V23.32H279.418L280.093 17.155H285.493V23.32H291.478V28.405H285.493V38.125C285.493 39.145 285.718 39.85 286.168 40.24C286.618 40.63 287.383 40.825 288.463 40.825H291.433V46H287.338ZM306.909 46.54C304.629 46.54 302.604 46.06 300.834 45.1C299.094 44.11 297.729 42.745 296.739 41.005C295.779 39.235 295.299 37.195 295.299 34.885C295.299 32.515 295.779 30.43 296.739 28.63C297.729 26.8 299.094 25.375 300.834 24.355C302.574 23.305 304.599 22.78 306.909 22.78C309.159 22.78 311.124 23.275 312.804 24.265C314.484 25.255 315.789 26.59 316.719 28.27C317.649 29.95 318.114 31.855 318.114 33.985C318.114 34.285 318.114 34.63 318.114 35.02C318.114 35.38 318.084 35.755 318.024 36.145H299.619V32.455H311.994C311.904 30.985 311.379 29.83 310.419 28.99C309.489 28.15 308.319 27.73 306.909 27.73C305.889 27.73 304.944 27.97 304.074 28.45C303.204 28.9 302.514 29.605 302.004 30.565C301.524 31.525 301.284 32.74 301.284 34.21V35.515C301.284 36.745 301.509 37.825 301.959 38.755C302.439 39.655 303.099 40.36 303.939 40.87C304.779 41.35 305.754 41.59 306.864 41.59C307.974 41.59 308.889 41.35 309.609 40.87C310.359 40.39 310.914 39.775 311.274 39.025H317.484C317.064 40.435 316.359 41.71 315.369 42.85C314.379 43.99 313.164 44.89 311.724 45.55C310.284 46.21 308.679 46.54 306.909 46.54ZM323.09 46V23.32H328.445L328.895 27.01C329.585 25.75 330.56 24.73 331.82 23.95C333.11 23.17 334.64 22.78 336.41 22.78C338.3 22.78 339.89 23.17 341.18 23.95C342.47 24.73 343.445 25.87 344.105 27.37C344.795 28.87 345.14 30.715 345.14 32.905V46H339.11V33.49C339.11 31.69 338.72 30.31 337.94 29.35C337.19 28.39 336.02 27.91 334.43 27.91C333.41 27.91 332.495 28.15 331.685 28.63C330.905 29.11 330.29 29.8 329.84 30.7C329.39 31.57 329.165 32.635 329.165 33.895V46H323.09ZM361.078 46C359.488 46 358.093 45.76 356.893 45.28C355.723 44.77 354.808 43.945 354.148 42.805C353.488 41.635 353.158 40.045 353.158 38.035V28.405H349.288V23.32H353.158L353.833 17.155H359.233V23.32H365.218V28.405H359.233V38.125C359.233 39.145 359.458 39.85 359.908 40.24C360.358 40.63 361.123 40.825 362.203 40.825H365.173V46H361.078ZM370.466 46V23.32H376.541V46H370.466ZM373.526 20.215C372.446 20.215 371.546 19.9 370.826 19.27C370.136 18.61 369.791 17.785 369.791 16.795C369.791 15.805 370.136 14.995 370.826 14.365C371.546 13.705 372.446 13.375 373.526 13.375C374.636 13.375 375.536 13.705 376.226 14.365C376.946 14.995 377.306 15.805 377.306 16.795C377.306 17.785 376.946 18.61 376.226 19.27C375.536 19.9 374.636 20.215 373.526 20.215ZM393.389 46.54C391.229 46.54 389.279 46.045 387.539 45.055C385.829 44.035 384.464 42.64 383.444 40.87C382.454 39.07 381.959 37.015 381.959 34.705C381.959 32.335 382.454 30.265 383.444 28.495C384.464 26.695 385.844 25.3 387.584 24.31C389.324 23.29 391.274 22.78 393.434 22.78C395.624 22.78 397.574 23.29 399.284 24.31C401.024 25.3 402.389 26.695 403.379 28.495C404.399 30.265 404.909 32.32 404.909 34.66C404.909 37 404.399 39.07 403.379 40.87C402.389 42.64 401.024 44.035 399.284 45.055C397.544 46.045 395.579 46.54 393.389 46.54ZM393.389 41.275C394.409 41.275 395.309 41.035 396.089 40.555C396.899 40.075 397.529 39.34 397.979 38.35C398.459 37.36 398.699 36.13 398.699 34.66C398.699 33.19 398.459 31.975 397.979 31.015C397.529 30.025 396.899 29.29 396.089 28.81C395.309 28.3 394.424 28.045 393.434 28.045C392.474 28.045 391.589 28.3 390.779 28.81C389.969 29.29 389.324 30.025 388.844 31.015C388.394 31.975 388.169 33.19 388.169 34.66C388.169 36.13 388.394 37.36 388.844 38.35C389.324 39.34 389.954 40.075 390.734 40.555C391.544 41.035 392.429 41.275 393.389 41.275ZM410.145 46V23.32H415.5L415.95 27.01C416.64 25.75 417.615 24.73 418.875 23.95C420.165 23.17 421.695 22.78 423.465 22.78C425.355 22.78 426.945 23.17 428.235 23.95C429.525 24.73 430.5 25.87 431.16 27.37C431.85 28.87 432.195 30.715 432.195 32.905V46H426.165V33.49C426.165 31.69 425.775 30.31 424.995 29.35C424.245 28.39 423.075 27.91 421.485 27.91C420.465 27.91 419.55 28.15 418.74 28.63C417.96 29.11 417.345 29.8 416.895 30.7C416.445 31.57 416.22 32.635 416.22 33.895V46H410.145ZM438.414 35.29V30.205H457.404V35.29H438.414ZM477.796 46.54C474.796 46.54 472.186 45.88 469.966 44.56C467.746 43.21 466.021 41.335 464.791 38.935C463.561 36.505 462.946 33.685 462.946 30.475C462.946 27.235 463.576 24.385 464.836 21.925C466.096 19.435 467.911 17.485 470.281 16.075C472.651 14.665 475.486 13.96 478.786 13.96C482.476 13.96 485.536 14.845 487.966 16.615C490.426 18.385 492.016 20.845 492.736 23.995H485.941C485.491 22.615 484.651 21.535 483.421 20.755C482.221 19.945 480.661 19.54 478.741 19.54C476.701 19.54 474.961 19.99 473.521 20.89C472.081 21.79 470.986 23.05 470.236 24.67C469.486 26.29 469.111 28.225 469.111 30.475C469.111 32.755 469.486 34.69 470.236 36.28C470.986 37.87 472.051 39.085 473.431 39.925C474.841 40.735 476.491 41.14 478.381 41.14C481.141 41.14 483.226 40.405 484.636 38.935C486.076 37.435 486.931 35.5 487.201 33.13H479.461V28.585H493.321V46H487.696L487.246 41.995C486.586 42.985 485.806 43.825 484.906 44.515C484.036 45.175 483.016 45.67 481.846 46C480.676 46.36 479.326 46.54 477.796 46.54ZM498.871 46V23.32H504.271L504.856 27.505C505.396 26.515 506.071 25.675 506.881 24.985C507.721 24.295 508.666 23.755 509.716 23.365C510.796 22.975 511.981 22.78 513.271 22.78V29.215H511.201C510.301 29.215 509.461 29.32 508.681 29.53C507.931 29.74 507.271 30.085 506.701 30.565C506.131 31.015 505.696 31.645 505.396 32.455C505.096 33.265 504.946 34.285 504.946 35.515V46H498.871ZM524.934 46.54C523.044 46.54 521.484 46.24 520.254 45.64C519.024 45.01 518.109 44.185 517.509 43.165C516.939 42.115 516.654 40.96 516.654 39.7C516.654 38.32 516.999 37.105 517.689 36.055C518.409 35.005 519.474 34.18 520.884 33.58C522.324 32.98 524.124 32.68 526.284 32.68H531.909C531.909 31.57 531.759 30.655 531.459 29.935C531.159 29.185 530.694 28.63 530.064 28.27C529.434 27.91 528.594 27.73 527.544 27.73C526.404 27.73 525.429 27.985 524.619 28.495C523.839 28.975 523.359 29.725 523.179 30.745H517.284C517.434 29.125 517.959 27.73 518.859 26.56C519.789 25.36 521.004 24.43 522.504 23.77C524.034 23.11 525.729 22.78 527.589 22.78C529.719 22.78 531.564 23.14 533.124 23.86C534.684 24.58 535.884 25.615 536.724 26.965C537.564 28.315 537.984 29.98 537.984 31.96V46H532.854L532.179 42.535C531.849 43.135 531.459 43.675 531.009 44.155C530.559 44.635 530.034 45.055 529.434 45.415C528.834 45.775 528.159 46.045 527.409 46.225C526.659 46.435 525.834 46.54 524.934 46.54ZM526.374 41.86C527.154 41.86 527.844 41.725 528.444 41.455C529.074 41.155 529.614 40.765 530.064 40.285C530.514 39.775 530.859 39.205 531.099 38.575C531.369 37.915 531.549 37.21 531.639 36.46V36.415H527.004C526.074 36.415 525.309 36.535 524.709 36.775C524.139 36.985 523.719 37.3 523.449 37.72C523.179 38.14 523.044 38.62 523.044 39.16C523.044 39.76 523.179 40.255 523.449 40.645C523.719 41.035 524.109 41.335 524.619 41.545C525.129 41.755 525.714 41.86 526.374 41.86ZM557.061 46.54C555.891 46.54 554.841 46.39 553.911 46.09C553.011 45.79 552.201 45.385 551.481 44.875C550.791 44.335 550.206 43.735 549.726 43.075L549.051 46H543.651V13.6H549.726V26.47C550.446 25.42 551.391 24.55 552.561 23.86C553.761 23.14 555.246 22.78 557.016 22.78C559.116 22.78 560.976 23.305 562.596 24.355C564.246 25.375 565.536 26.785 566.466 28.585C567.426 30.355 567.906 32.395 567.906 34.705C567.906 36.955 567.426 38.98 566.466 40.78C565.536 42.58 564.261 43.99 562.641 45.01C561.021 46.03 559.161 46.54 557.061 46.54ZM555.621 41.23C556.821 41.23 557.871 40.96 558.771 40.42C559.701 39.85 560.421 39.085 560.931 38.125C561.441 37.135 561.696 35.995 561.696 34.705C561.696 33.415 561.441 32.275 560.931 31.285C560.421 30.265 559.701 29.485 558.771 28.945C557.871 28.375 556.821 28.09 555.621 28.09C554.451 28.09 553.401 28.375 552.471 28.945C551.571 29.485 550.851 30.25 550.311 31.24C549.801 32.23 549.546 33.37 549.546 34.66C549.546 35.95 549.801 37.105 550.311 38.125C550.851 39.115 551.571 39.88 552.471 40.42C553.401 40.96 554.451 41.23 555.621 41.23ZM586.548 46.54C585.378 46.54 584.328 46.39 583.398 46.09C582.498 45.79 581.688 45.385 580.968 44.875C580.278 44.335 579.693 43.735 579.213 43.075L578.538 46H573.138V13.6H579.213V26.47C579.933 25.42 580.878 24.55 582.048 23.86C583.248 23.14 584.733 22.78 586.503 22.78C588.603 22.78 590.463 23.305 592.083 24.355C593.733 25.375 595.023 26.785 595.953 28.585C596.913 30.355 597.393 32.395 597.393 34.705C597.393 36.955 596.913 38.98 595.953 40.78C595.023 42.58 593.748 43.99 592.128 45.01C590.508 46.03 588.648 46.54 586.548 46.54ZM585.108 41.23C586.308 41.23 587.358 40.96 588.258 40.42C589.188 39.85 589.908 39.085 590.418 38.125C590.928 37.135 591.183 35.995 591.183 34.705C591.183 33.415 590.928 32.275 590.418 31.285C589.908 30.265 589.188 29.485 588.258 28.945C587.358 28.375 586.308 28.09 585.108 28.09C583.938 28.09 582.888 28.375 581.958 28.945C581.058 29.485 580.338 30.25 579.798 31.24C579.288 32.23 579.033 33.37 579.033 34.66C579.033 35.95 579.288 37.105 579.798 38.125C580.338 39.115 581.058 39.88 581.958 40.42C582.888 40.96 583.938 41.23 585.108 41.23ZM602.761 46V23.32H608.836V46H602.761ZM605.821 20.215C604.741 20.215 603.841 19.9 603.121 19.27C602.431 18.61 602.086 17.785 602.086 16.795C602.086 15.805 602.431 14.995 603.121 14.365C603.841 13.705 604.741 13.375 605.821 13.375C606.931 13.375 607.831 13.705 608.521 14.365C609.241 14.995 609.601 15.805 609.601 16.795C609.601 17.785 609.241 18.61 608.521 19.27C607.831 19.9 606.931 20.215 605.821 20.215ZM614.974 46V23.32H620.329L620.779 27.01C621.469 25.75 622.444 24.73 623.704 23.95C624.994 23.17 626.524 22.78 628.294 22.78C630.184 22.78 631.774 23.17 633.064 23.95C634.354 24.73 635.329 25.87 635.989 27.37C636.679 28.87 637.024 30.715 637.024 32.905V46H630.994V33.49C630.994 31.69 630.604 30.31 629.824 29.35C629.074 28.39 627.904 27.91 626.314 27.91C625.294 27.91 624.379 28.15 623.569 28.63C622.789 29.11 622.174 29.8 621.724 30.7C621.274 31.57 621.049 32.635 621.049 33.895V46H614.974ZM652.063 55.54C649.933 55.54 648.058 55.285 646.438 54.775C644.848 54.265 643.603 53.5 642.703 52.48C641.833 51.49 641.398 50.29 641.398 48.88C641.398 47.83 641.668 46.87 642.208 46C642.748 45.1 643.543 44.29 644.593 43.57C645.643 42.82 646.933 42.175 648.463 41.635L650.668 44.65C649.348 45.1 648.388 45.64 647.788 46.27C647.188 46.9 646.888 47.62 646.888 48.43C646.888 49.03 647.098 49.54 647.518 49.96C647.968 50.38 648.583 50.695 649.363 50.905C650.143 51.145 651.043 51.265 652.063 51.265C653.083 51.265 653.938 51.145 654.628 50.905C655.318 50.665 655.843 50.32 656.203 49.87C656.563 49.45 656.743 48.955 656.743 48.385C656.743 47.575 656.458 46.945 655.888 46.495C655.318 46.075 654.208 45.805 652.558 45.685C651.028 45.565 649.678 45.4 648.508 45.19C647.338 44.95 646.303 44.68 645.403 44.38C644.533 44.05 643.783 43.69 643.153 43.3C642.523 42.91 642.013 42.52 641.623 42.13V41.095L646.438 36.145L649.993 37.495L645.133 42.895L646.753 40.195C647.053 40.315 647.368 40.435 647.698 40.555C648.028 40.675 648.433 40.795 648.913 40.915C649.423 41.035 650.053 41.155 650.803 41.275C651.583 41.365 652.558 41.47 653.728 41.59C655.708 41.74 657.328 42.085 658.588 42.625C659.848 43.165 660.778 43.9 661.378 44.83C661.978 45.76 662.278 46.9 662.278 48.25C662.278 49.42 661.903 50.56 661.153 51.67C660.433 52.81 659.323 53.74 657.823 54.46C656.323 55.18 654.403 55.54 652.063 55.54ZM652.108 39.385C650.218 39.385 648.583 39.025 647.203 38.305C645.853 37.585 644.803 36.61 644.053 35.38C643.333 34.15 642.973 32.785 642.973 31.285C642.973 29.785 643.333 28.42 644.053 27.19C644.803 25.96 645.853 24.985 647.203 24.265C648.583 23.515 650.218 23.14 652.108 23.14C653.998 23.14 655.618 23.515 656.968 24.265C658.348 24.985 659.398 25.96 660.118 27.19C660.838 28.42 661.198 29.785 661.198 31.285C661.198 32.785 660.838 34.15 660.118 35.38C659.398 36.61 658.348 37.585 656.968 38.305C655.618 39.025 653.998 39.385 652.108 39.385ZM652.063 34.975C653.263 34.975 654.223 34.675 654.943 34.075C655.693 33.445 656.068 32.515 656.068 31.285C656.068 30.055 655.693 29.14 654.943 28.54C654.223 27.91 653.278 27.595 652.108 27.595C650.908 27.595 649.933 27.91 649.183 28.54C648.463 29.14 648.103 30.055 648.103 31.285C648.103 32.515 648.463 33.445 649.183 34.075C649.933 34.675 650.893 34.975 652.063 34.975ZM655.753 27.775L654.763 23.68H664.123V26.965L655.753 27.775ZM690.675 46.54C688.635 46.54 686.76 46.165 685.05 45.415C683.34 44.665 681.975 43.525 680.955 41.995C679.935 40.465 679.395 38.53 679.335 36.19H685.275C685.305 37.18 685.53 38.08 685.95 38.89C686.37 39.67 686.985 40.3 687.795 40.78C688.605 41.23 689.565 41.455 690.675 41.455C691.725 41.455 692.625 41.245 693.375 40.825C694.125 40.405 694.695 39.85 695.085 39.16C695.475 38.47 695.67 37.675 695.67 36.775C695.67 35.725 695.4 34.855 694.86 34.165C694.35 33.445 693.63 32.905 692.7 32.545C691.8 32.185 690.765 32.005 689.595 32.005H687.255V27.01H689.595C691.065 27.01 692.295 26.665 693.285 25.975C694.305 25.285 694.815 24.25 694.815 22.87C694.815 21.73 694.44 20.815 693.69 20.125C692.97 19.435 691.95 19.09 690.63 19.09C689.19 19.09 688.065 19.51 687.255 20.35C686.445 21.19 685.995 22.225 685.905 23.455H679.965C680.055 21.475 680.55 19.78 681.45 18.37C682.38 16.93 683.625 15.835 685.185 15.085C686.745 14.335 688.56 13.96 690.63 13.96C692.82 13.96 694.665 14.35 696.165 15.13C697.695 15.88 698.85 16.9 699.63 18.19C700.41 19.48 700.8 20.875 700.8 22.375C700.8 23.605 700.56 24.7 700.08 25.66C699.63 26.62 699.015 27.415 698.235 28.045C697.455 28.675 696.6 29.125 695.67 29.395C696.84 29.635 697.86 30.1 698.73 30.79C699.63 31.45 700.32 32.305 700.8 33.355C701.31 34.405 701.565 35.62 701.565 37C701.565 38.71 701.145 40.3 700.305 41.77C699.495 43.21 698.265 44.365 696.615 45.235C694.995 46.105 693.015 46.54 690.675 46.54ZM707.395 46V14.5H717.925C721.585 14.5 724.6 15.16 726.97 16.48C729.37 17.77 731.14 19.6 732.28 21.97C733.45 24.31 734.035 27.07 734.035 30.25C734.035 33.43 733.45 36.205 732.28 38.575C731.14 40.915 729.385 42.745 727.015 44.065C724.645 45.355 721.615 46 717.925 46H707.395ZM713.47 40.78H717.61C720.19 40.78 722.215 40.36 723.685 39.52C725.185 38.68 726.25 37.48 726.88 35.92C727.51 34.33 727.825 32.44 727.825 30.25C727.825 28.03 727.51 26.14 726.88 24.58C726.25 22.99 725.185 21.775 723.685 20.935C722.215 20.095 720.19 19.675 717.61 19.675H713.47V40.78ZM758.847 46L747.372 14.5H753.852L762.582 39.79L771.357 14.5H777.792L766.317 46H758.847ZM781.574 46V23.32H787.649V46H781.574ZM784.634 20.215C783.554 20.215 782.654 19.9 781.934 19.27C781.244 18.61 780.899 17.785 780.899 16.795C780.899 15.805 781.244 14.995 781.934 14.365C782.654 13.705 783.554 13.375 784.634 13.375C785.744 13.375 786.644 13.705 787.334 14.365C788.054 14.995 788.414 15.805 788.414 16.795C788.414 17.785 788.054 18.61 787.334 19.27C786.644 19.9 785.744 20.215 784.634 20.215ZM803.868 46.54C801.798 46.54 799.938 46.03 798.288 45.01C796.668 43.99 795.393 42.58 794.463 40.78C793.533 38.98 793.068 36.955 793.068 34.705C793.068 32.395 793.533 30.355 794.463 28.585C795.423 26.785 796.728 25.375 798.378 24.355C800.058 23.305 801.933 22.78 804.003 22.78C805.623 22.78 807.048 23.08 808.278 23.68C809.508 24.28 810.498 25.135 811.248 26.245V13.6H817.323V46H811.923L811.248 42.895C810.798 43.525 810.228 44.125 809.538 44.695C808.878 45.265 808.083 45.715 807.153 46.045C806.223 46.375 805.128 46.54 803.868 46.54ZM805.308 41.23C806.508 41.23 807.558 40.96 808.458 40.42C809.388 39.85 810.108 39.07 810.618 38.08C811.128 37.09 811.383 35.95 811.383 34.66C811.383 33.37 811.128 32.23 810.618 31.24C810.108 30.25 809.388 29.485 808.458 28.945C807.558 28.375 806.508 28.09 805.308 28.09C804.168 28.09 803.133 28.375 802.203 28.945C801.273 29.485 800.538 30.25 799.998 31.24C799.488 32.23 799.233 33.355 799.233 34.615C799.233 35.935 799.488 37.09 799.998 38.08C800.538 39.07 801.258 39.85 802.158 40.42C803.088 40.96 804.138 41.23 805.308 41.23ZM834.165 46.54C831.885 46.54 829.86 46.06 828.09 45.1C826.35 44.11 824.985 42.745 823.995 41.005C823.035 39.235 822.555 37.195 822.555 34.885C822.555 32.515 823.035 30.43 823.995 28.63C824.985 26.8 826.35 25.375 828.09 24.355C829.83 23.305 831.855 22.78 834.165 22.78C836.415 22.78 838.38 23.275 840.06 24.265C841.74 25.255 843.045 26.59 843.975 28.27C844.905 29.95 845.37 31.855 845.37 33.985C845.37 34.285 845.37 34.63 845.37 35.02C845.37 35.38 845.34 35.755 845.28 36.145H826.875V32.455H839.25C839.16 30.985 838.635 29.83 837.675 28.99C836.745 28.15 835.575 27.73 834.165 27.73C833.145 27.73 832.2 27.97 831.33 28.45C830.46 28.9 829.77 29.605 829.26 30.565C828.78 31.525 828.54 32.74 828.54 34.21V35.515C828.54 36.745 828.765 37.825 829.215 38.755C829.695 39.655 830.355 40.36 831.195 40.87C832.035 41.35 833.01 41.59 834.12 41.59C835.23 41.59 836.145 41.35 836.865 40.87C837.615 40.39 838.17 39.775 838.53 39.025H844.74C844.32 40.435 843.615 41.71 842.625 42.85C841.635 43.99 840.42 44.89 838.98 45.55C837.54 46.21 835.935 46.54 834.165 46.54ZM861.055 46.54C858.895 46.54 856.945 46.045 855.205 45.055C853.495 44.035 852.13 42.64 851.11 40.87C850.12 39.07 849.625 37.015 849.625 34.705C849.625 32.335 850.12 30.265 851.11 28.495C852.13 26.695 853.51 25.3 855.25 24.31C856.99 23.29 858.94 22.78 861.1 22.78C863.29 22.78 865.24 23.29 866.95 24.31C868.69 25.3 870.055 26.695 871.045 28.495C872.065 30.265 872.575 32.32 872.575 34.66C872.575 37 872.065 39.07 871.045 40.87C870.055 42.64 868.69 44.035 866.95 45.055C865.21 46.045 863.245 46.54 861.055 46.54ZM861.055 41.275C862.075 41.275 862.975 41.035 863.755 40.555C864.565 40.075 865.195 39.34 865.645 38.35C866.125 37.36 866.365 36.13 866.365 34.66C866.365 33.19 866.125 31.975 865.645 31.015C865.195 30.025 864.565 29.29 863.755 28.81C862.975 28.3 862.09 28.045 861.1 28.045C860.14 28.045 859.255 28.3 858.445 28.81C857.635 29.29 856.99 30.025 856.51 31.015C856.06 31.975 855.835 33.19 855.835 34.66C855.835 36.13 856.06 37.36 856.51 38.35C856.99 39.34 857.62 40.075 858.4 40.555C859.21 41.035 860.095 41.275 861.055 41.275ZM887.081 46.54C885.011 46.54 883.211 46.21 881.681 45.55C880.151 44.89 878.951 43.975 878.081 42.805C877.211 41.635 876.716 40.315 876.596 38.845H882.626C882.776 39.415 883.031 39.94 883.391 40.42C883.751 40.87 884.231 41.23 884.831 41.5C885.431 41.77 886.151 41.905 886.991 41.905C887.801 41.905 888.461 41.8 888.971 41.59C889.481 41.35 889.856 41.035 890.096 40.645C890.366 40.255 890.501 39.85 890.501 39.43C890.501 38.8 890.321 38.32 889.961 37.99C889.601 37.63 889.076 37.345 888.386 37.135C887.696 36.925 886.856 36.715 885.866 36.505C884.786 36.295 883.721 36.04 882.671 35.74C881.651 35.41 880.736 35.005 879.926 34.525C879.116 34.045 878.471 33.43 877.991 32.68C877.511 31.93 877.271 31 877.271 29.89C877.271 28.54 877.631 27.34 878.351 26.29C879.071 25.21 880.121 24.355 881.501 23.725C882.881 23.095 884.546 22.78 886.496 22.78C889.226 22.78 891.386 23.395 892.976 24.625C894.566 25.855 895.511 27.55 895.811 29.71H890.096C889.916 29.02 889.511 28.48 888.881 28.09C888.281 27.67 887.471 27.46 886.451 27.46C885.371 27.46 884.546 27.655 883.976 28.045C883.406 28.435 883.121 28.945 883.121 29.575C883.121 29.995 883.301 30.37 883.661 30.7C884.051 31.03 884.591 31.315 885.281 31.555C885.971 31.765 886.811 31.975 887.801 32.185C889.541 32.545 891.071 32.965 892.391 33.445C893.711 33.895 894.746 34.555 895.496 35.425C896.246 36.265 896.621 37.495 896.621 39.115C896.621 40.555 896.231 41.845 895.451 42.985C894.671 44.095 893.561 44.965 892.121 45.595C890.711 46.225 889.031 46.54 887.081 46.54Z" fill="#36074E"/>
<path d="M920.812 46.54C918.982 46.54 917.407 46.165 916.087 45.415C914.797 44.635 913.807 43.51 913.117 42.04C912.427 40.54 912.082 38.695 912.082 36.505V23.32H918.157V35.875C918.157 37.705 918.532 39.085 919.282 40.015C920.062 40.945 921.247 41.41 922.837 41.41C923.857 41.41 924.757 41.185 925.537 40.735C926.317 40.255 926.932 39.58 927.382 38.71C927.862 37.81 928.102 36.715 928.102 35.425V23.32H934.132V46H928.822L928.327 42.31C927.667 43.6 926.692 44.635 925.402 45.415C924.112 46.165 922.582 46.54 920.812 46.54ZM949.352 46.54C947.282 46.54 945.482 46.21 943.952 45.55C942.422 44.89 941.222 43.975 940.352 42.805C939.482 41.635 938.987 40.315 938.867 38.845H944.897C945.047 39.415 945.302 39.94 945.662 40.42C946.022 40.87 946.502 41.23 947.102 41.5C947.702 41.77 948.422 41.905 949.262 41.905C950.072 41.905 950.732 41.8 951.242 41.59C951.752 41.35 952.127 41.035 952.367 40.645C952.637 40.255 952.772 39.85 952.772 39.43C952.772 38.8 952.592 38.32 952.232 37.99C951.872 37.63 951.347 37.345 950.657 37.135C949.967 36.925 949.127 36.715 948.137 36.505C947.057 36.295 945.992 36.04 944.942 35.74C943.922 35.41 943.007 35.005 942.197 34.525C941.387 34.045 940.742 33.43 940.262 32.68C939.782 31.93 939.542 31 939.542 29.89C939.542 28.54 939.902 27.34 940.622 26.29C941.342 25.21 942.392 24.355 943.772 23.725C945.152 23.095 946.817 22.78 948.767 22.78C951.497 22.78 953.657 23.395 955.247 24.625C956.837 25.855 957.782 27.55 958.082 29.71H952.367C952.187 29.02 951.782 28.48 951.152 28.09C950.552 27.67 949.742 27.46 948.722 27.46C947.642 27.46 946.817 27.655 946.247 28.045C945.677 28.435 945.392 28.945 945.392 29.575C945.392 29.995 945.572 30.37 945.932 30.7C946.322 31.03 946.862 31.315 947.552 31.555C948.242 31.765 949.082 31.975 950.072 32.185C951.812 32.545 953.342 32.965 954.662 33.445C955.982 33.895 957.017 34.555 957.767 35.425C958.517 36.265 958.892 37.495 958.892 39.115C958.892 40.555 958.502 41.845 957.722 42.985C956.942 44.095 955.832 44.965 954.392 45.595C952.982 46.225 951.302 46.54 949.352 46.54ZM964.167 46V23.32H970.242V46H964.167ZM967.227 20.215C966.147 20.215 965.247 19.9 964.527 19.27C963.837 18.61 963.492 17.785 963.492 16.795C963.492 15.805 963.837 14.995 964.527 14.365C965.247 13.705 966.147 13.375 967.227 13.375C968.337 13.375 969.237 13.705 969.927 14.365C970.647 14.995 971.007 15.805 971.007 16.795C971.007 17.785 970.647 18.61 969.927 19.27C969.237 19.9 968.337 20.215 967.227 20.215ZM976.381 46V23.32H981.736L982.186 27.01C982.876 25.75 983.851 24.73 985.111 23.95C986.401 23.17 987.931 22.78 989.701 22.78C991.591 22.78 993.181 23.17 994.471 23.95C995.761 24.73 996.736 25.87 997.396 27.37C998.086 28.87 998.431 30.715 998.431 32.905V46H992.401V33.49C992.401 31.69 992.011 30.31 991.231 29.35C990.481 28.39 989.311 27.91 987.721 27.91C986.701 27.91 985.786 28.15 984.976 28.63C984.196 29.11 983.581 29.8 983.131 30.7C982.681 31.57 982.456 32.635 982.456 33.895V46H976.381ZM1013.47 55.54C1011.34 55.54 1009.46 55.285 1007.84 54.775C1006.25 54.265 1005.01 53.5 1004.11 52.48C1003.24 51.49 1002.8 50.29 1002.8 48.88C1002.8 47.83 1003.07 46.87 1003.61 46C1004.15 45.1 1004.95 44.29 1006 43.57C1007.05 42.82 1008.34 42.175 1009.87 41.635L1012.07 44.65C1010.75 45.1 1009.79 45.64 1009.19 46.27C1008.59 46.9 1008.29 47.62 1008.29 48.43C1008.29 49.03 1008.5 49.54 1008.92 49.96C1009.37 50.38 1009.99 50.695 1010.77 50.905C1011.55 51.145 1012.45 51.265 1013.47 51.265C1014.49 51.265 1015.34 51.145 1016.03 50.905C1016.72 50.665 1017.25 50.32 1017.61 49.87C1017.97 49.45 1018.15 48.955 1018.15 48.385C1018.15 47.575 1017.86 46.945 1017.29 46.495C1016.72 46.075 1015.61 45.805 1013.96 45.685C1012.43 45.565 1011.08 45.4 1009.91 45.19C1008.74 44.95 1007.71 44.68 1006.81 44.38C1005.94 44.05 1005.19 43.69 1004.56 43.3C1003.93 42.91 1003.42 42.52 1003.03 42.13V41.095L1007.84 36.145L1011.4 37.495L1006.54 42.895L1008.16 40.195C1008.46 40.315 1008.77 40.435 1009.1 40.555C1009.43 40.675 1009.84 40.795 1010.32 40.915C1010.83 41.035 1011.46 41.155 1012.21 41.275C1012.99 41.365 1013.96 41.47 1015.13 41.59C1017.11 41.74 1018.73 42.085 1019.99 42.625C1021.25 43.165 1022.18 43.9 1022.78 44.83C1023.38 45.76 1023.68 46.9 1023.68 48.25C1023.68 49.42 1023.31 50.56 1022.56 51.67C1021.84 52.81 1020.73 53.74 1019.23 54.46C1017.73 55.18 1015.81 55.54 1013.47 55.54ZM1013.51 39.385C1011.62 39.385 1009.99 39.025 1008.61 38.305C1007.26 37.585 1006.21 36.61 1005.46 35.38C1004.74 34.15 1004.38 32.785 1004.38 31.285C1004.38 29.785 1004.74 28.42 1005.46 27.19C1006.21 25.96 1007.26 24.985 1008.61 24.265C1009.99 23.515 1011.62 23.14 1013.51 23.14C1015.4 23.14 1017.02 23.515 1018.37 24.265C1019.75 24.985 1020.8 25.96 1021.52 27.19C1022.24 28.42 1022.6 29.785 1022.6 31.285C1022.6 32.785 1022.24 34.15 1021.52 35.38C1020.8 36.61 1019.75 37.585 1018.37 38.305C1017.02 39.025 1015.4 39.385 1013.51 39.385ZM1013.47 34.975C1014.67 34.975 1015.63 34.675 1016.35 34.075C1017.1 33.445 1017.47 32.515 1017.47 31.285C1017.47 30.055 1017.1 29.14 1016.35 28.54C1015.63 27.91 1014.68 27.595 1013.51 27.595C1012.31 27.595 1011.34 27.91 1010.59 28.54C1009.87 29.14 1009.51 30.055 1009.51 31.285C1009.51 32.515 1009.87 33.445 1010.59 34.075C1011.34 34.675 1012.3 34.975 1013.47 34.975ZM1017.16 27.775L1016.17 23.68H1025.53V26.965L1017.16 27.775ZM138.066 83.835L137.481 74.025H142.746L142.161 83.835H138.066ZM161.793 108.54C158.643 108.54 155.928 107.865 153.648 106.515C151.398 105.135 149.658 103.23 148.428 100.8C147.228 98.34 146.628 95.505 146.628 92.295C146.628 89.085 147.228 86.25 148.428 83.79C149.658 81.33 151.398 79.41 153.648 78.03C155.928 76.65 158.643 75.96 161.793 75.96C165.603 75.96 168.723 76.905 171.153 78.795C173.583 80.685 175.098 83.355 175.698 86.805H169.083C168.693 85.125 167.868 83.82 166.608 82.89C165.378 81.93 163.758 81.45 161.748 81.45C159.888 81.45 158.283 81.9 156.933 82.8C155.613 83.67 154.593 84.915 153.873 86.535C153.153 88.125 152.793 90.045 152.793 92.295C152.793 94.515 153.153 96.435 153.873 98.055C154.593 99.675 155.613 100.92 156.933 101.79C158.283 102.66 159.888 103.095 161.748 103.095C163.758 103.095 165.378 102.66 166.608 101.79C167.838 100.89 168.648 99.645 169.038 98.055H175.698C175.098 101.325 173.583 103.89 171.153 105.75C168.723 107.61 165.603 108.54 161.793 108.54ZM180.751 108V75.6H186.826V108H180.751ZM192.883 108V85.32H198.958V108H192.883ZM195.943 82.215C194.863 82.215 193.963 81.9 193.243 81.27C192.553 80.61 192.208 79.785 192.208 78.795C192.208 77.805 192.553 76.995 193.243 76.365C193.963 75.705 194.863 75.375 195.943 75.375C197.053 75.375 197.953 75.705 198.643 76.365C199.363 76.995 199.723 77.805 199.723 78.795C199.723 79.785 199.363 80.61 198.643 81.27C197.953 81.9 197.053 82.215 195.943 82.215ZM205.096 117.9V85.32H210.496L211.171 88.47C211.651 87.81 212.221 87.21 212.881 86.67C213.541 86.1 214.321 85.65 215.221 85.32C216.151 84.96 217.231 84.78 218.461 84.78C220.591 84.78 222.466 85.305 224.086 86.355C225.706 87.405 226.981 88.83 227.911 90.63C228.871 92.4 229.351 94.425 229.351 96.705C229.351 98.985 228.871 101.025 227.911 102.825C226.951 104.595 225.661 105.99 224.041 107.01C222.421 108.03 220.576 108.54 218.506 108.54C216.826 108.54 215.371 108.24 214.141 107.64C212.941 107.01 211.951 106.155 211.171 105.075V117.9H205.096ZM217.066 103.23C218.266 103.23 219.316 102.96 220.216 102.42C221.146 101.88 221.866 101.115 222.376 100.125C222.886 99.135 223.141 97.995 223.141 96.705C223.141 95.415 222.886 94.275 222.376 93.285C221.866 92.265 221.146 91.485 220.216 90.945C219.316 90.375 218.266 90.09 217.066 90.09C215.896 90.09 214.846 90.375 213.916 90.945C213.016 91.485 212.296 92.25 211.756 93.24C211.246 94.23 210.991 95.37 210.991 96.66C210.991 97.95 211.246 99.105 211.756 100.125C212.296 101.115 213.016 101.88 213.916 102.42C214.846 102.96 215.896 103.23 217.066 103.23ZM243.854 108.54C241.784 108.54 239.984 108.21 238.454 107.55C236.924 106.89 235.724 105.975 234.854 104.805C233.984 103.635 233.489 102.315 233.369 100.845H239.399C239.549 101.415 239.804 101.94 240.164 102.42C240.524 102.87 241.004 103.23 241.604 103.5C242.204 103.77 242.924 103.905 243.764 103.905C244.574 103.905 245.234 103.8 245.744 103.59C246.254 103.35 246.629 103.035 246.869 102.645C247.139 102.255 247.274 101.85 247.274 101.43C247.274 100.8 247.094 100.32 246.734 99.99C246.374 99.63 245.849 99.345 245.159 99.135C244.469 98.925 243.629 98.715 242.639 98.505C241.559 98.295 240.494 98.04 239.444 97.74C238.424 97.41 237.509 97.005 236.699 96.525C235.889 96.045 235.244 95.43 234.764 94.68C234.284 93.93 234.044 93 234.044 91.89C234.044 90.54 234.404 89.34 235.124 88.29C235.844 87.21 236.894 86.355 238.274 85.725C239.654 85.095 241.319 84.78 243.269 84.78C245.999 84.78 248.159 85.395 249.749 86.625C251.339 87.855 252.284 89.55 252.584 91.71H246.869C246.689 91.02 246.284 90.48 245.654 90.09C245.054 89.67 244.244 89.46 243.224 89.46C242.144 89.46 241.319 89.655 240.749 90.045C240.179 90.435 239.894 90.945 239.894 91.575C239.894 91.995 240.074 92.37 240.434 92.7C240.824 93.03 241.364 93.315 242.054 93.555C242.744 93.765 243.584 93.975 244.574 94.185C246.314 94.545 247.844 94.965 249.164 95.445C250.484 95.895 251.519 96.555 252.269 97.425C253.019 98.265 253.394 99.495 253.394 101.115C253.394 102.555 253.004 103.845 252.224 104.985C251.444 106.095 250.334 106.965 248.894 107.595C247.484 108.225 245.804 108.54 243.854 108.54ZM258.669 108V76.5H265.914L275.544 96.165L285.084 76.5H292.329V108H286.254V86.85L277.929 103.59H273.114L264.744 86.85V108H258.669ZM306.042 108.54C304.152 108.54 302.592 108.24 301.362 107.64C300.132 107.01 299.217 106.185 298.617 105.165C298.047 104.115 297.762 102.96 297.762 101.7C297.762 100.32 298.107 99.105 298.797 98.055C299.517 97.005 300.582 96.18 301.992 95.58C303.432 94.98 305.232 94.68 307.392 94.68H313.017C313.017 93.57 312.867 92.655 312.567 91.935C312.267 91.185 311.802 90.63 311.172 90.27C310.542 89.91 309.702 89.73 308.652 89.73C307.512 89.73 306.537 89.985 305.727 90.495C304.947 90.975 304.467 91.725 304.287 92.745H298.392C298.542 91.125 299.067 89.73 299.967 88.56C300.897 87.36 302.112 86.43 303.612 85.77C305.142 85.11 306.837 84.78 308.697 84.78C310.827 84.78 312.672 85.14 314.232 85.86C315.792 86.58 316.992 87.615 317.832 88.965C318.672 90.315 319.092 91.98 319.092 93.96V108H313.962L313.287 104.535C312.957 105.135 312.567 105.675 312.117 106.155C311.667 106.635 311.142 107.055 310.542 107.415C309.942 107.775 309.267 108.045 308.517 108.225C307.767 108.435 306.942 108.54 306.042 108.54ZM307.482 103.86C308.262 103.86 308.952 103.725 309.552 103.455C310.182 103.155 310.722 102.765 311.172 102.285C311.622 101.775 311.967 101.205 312.207 100.575C312.477 99.915 312.657 99.21 312.747 98.46V98.415H308.112C307.182 98.415 306.417 98.535 305.817 98.775C305.247 98.985 304.827 99.3 304.557 99.72C304.287 100.14 304.152 100.62 304.152 101.16C304.152 101.76 304.287 102.255 304.557 102.645C304.827 103.035 305.217 103.335 305.727 103.545C306.237 103.755 306.822 103.86 307.482 103.86ZM334.711 108C333.121 108 331.726 107.76 330.526 107.28C329.356 106.77 328.441 105.945 327.781 104.805C327.121 103.635 326.791 102.045 326.791 100.035V90.405H322.921V85.32H326.791L327.466 79.155H332.866V85.32H338.851V90.405H332.866V100.125C332.866 101.145 333.091 101.85 333.541 102.24C333.991 102.63 334.756 102.825 335.836 102.825H338.806V108H334.711ZM354.282 108.54C352.002 108.54 349.977 108.06 348.207 107.1C346.467 106.11 345.102 104.745 344.112 103.005C343.152 101.235 342.672 99.195 342.672 96.885C342.672 94.515 343.152 92.43 344.112 90.63C345.102 88.8 346.467 87.375 348.207 86.355C349.947 85.305 351.972 84.78 354.282 84.78C356.532 84.78 358.497 85.275 360.177 86.265C361.857 87.255 363.162 88.59 364.092 90.27C365.022 91.95 365.487 93.855 365.487 95.985C365.487 96.285 365.487 96.63 365.487 97.02C365.487 97.38 365.457 97.755 365.397 98.145H346.992V94.455H359.367C359.277 92.985 358.752 91.83 357.792 90.99C356.862 90.15 355.692 89.73 354.282 89.73C353.262 89.73 352.317 89.97 351.447 90.45C350.577 90.9 349.887 91.605 349.377 92.565C348.897 93.525 348.657 94.74 348.657 96.21V97.515C348.657 98.745 348.882 99.825 349.332 100.755C349.812 101.655 350.472 102.36 351.312 102.87C352.152 103.35 353.127 103.59 354.237 103.59C355.347 103.59 356.262 103.35 356.982 102.87C357.732 102.39 358.287 101.775 358.647 101.025H364.857C364.437 102.435 363.732 103.71 362.742 104.85C361.752 105.99 360.537 106.89 359.097 107.55C357.657 108.21 356.052 108.54 354.282 108.54ZM367.718 108L377.708 76.5H387.653L397.598 108H391.163L382.793 80.055H382.613L374.063 108H367.718ZM372.803 98.955L374.378 94.23H390.443L392.018 98.955H372.803ZM402.502 108V76.5H408.577V108H402.502ZM414.043 83.835L413.458 74.025H418.723L418.138 83.835H414.043ZM441.565 108V81.405H432.34V76.5H456.775V81.405H447.595V108H441.565ZM467.793 108.54C465.513 108.54 463.488 108.06 461.718 107.1C459.978 106.11 458.613 104.745 457.623 103.005C456.663 101.235 456.183 99.195 456.183 96.885C456.183 94.515 456.663 92.43 457.623 90.63C458.613 88.8 459.978 87.375 461.718 86.355C463.458 85.305 465.483 84.78 467.793 84.78C470.043 84.78 472.008 85.275 473.688 86.265C475.368 87.255 476.673 88.59 477.603 90.27C478.533 91.95 478.998 93.855 478.998 95.985C478.998 96.285 478.998 96.63 478.998 97.02C478.998 97.38 478.968 97.755 478.908 98.145H460.503V94.455H472.878C472.788 92.985 472.263 91.83 471.303 90.99C470.373 90.15 469.203 89.73 467.793 89.73C466.773 89.73 465.828 89.97 464.958 90.45C464.088 90.9 463.398 91.605 462.888 92.565C462.408 93.525 462.168 94.74 462.168 96.21V97.515C462.168 98.745 462.393 99.825 462.843 100.755C463.323 101.655 463.983 102.36 464.823 102.87C465.663 103.35 466.638 103.59 467.748 103.59C468.858 103.59 469.773 103.35 470.493 102.87C471.243 102.39 471.798 101.775 472.158 101.025H478.368C477.948 102.435 477.243 103.71 476.253 104.85C475.263 105.99 474.048 106.89 472.608 107.55C471.168 108.21 469.563 108.54 467.793 108.54ZM494.953 108.54C492.673 108.54 490.648 108.03 488.878 107.01C487.108 105.99 485.728 104.595 484.738 102.825C483.748 101.055 483.253 99.03 483.253 96.75C483.253 94.41 483.748 92.355 484.738 90.585C485.728 88.785 487.108 87.375 488.878 86.355C490.648 85.305 492.673 84.78 494.953 84.78C497.863 84.78 500.308 85.545 502.288 87.075C504.268 88.605 505.528 90.705 506.068 93.375H499.633C499.363 92.325 498.793 91.5 497.923 90.9C497.083 90.3 496.078 90 494.908 90C493.858 90 492.913 90.27 492.073 90.81C491.263 91.32 490.618 92.085 490.138 93.105C489.688 94.095 489.463 95.28 489.463 96.66C489.463 97.71 489.598 98.655 489.868 99.495C490.138 100.305 490.513 101.01 490.993 101.61C491.473 102.18 492.043 102.615 492.703 102.915C493.393 103.215 494.128 103.365 494.908 103.365C495.688 103.365 496.393 103.23 497.023 102.96C497.683 102.69 498.238 102.315 498.688 101.835C499.138 101.325 499.453 100.71 499.633 99.99H506.068C505.528 102.6 504.253 104.685 502.243 106.245C500.263 107.775 497.833 108.54 494.953 108.54ZM511.307 108V75.6H517.382V88.695C518.132 87.495 519.122 86.55 520.352 85.86C521.612 85.14 523.067 84.78 524.717 84.78C526.607 84.78 528.197 85.185 529.487 85.995C530.777 86.775 531.752 87.915 532.412 89.415C533.072 90.915 533.402 92.775 533.402 94.995V108H527.372V95.535C527.372 93.735 526.997 92.355 526.247 91.395C525.497 90.405 524.312 89.91 522.692 89.91C521.702 89.91 520.802 90.15 519.992 90.63C519.182 91.11 518.537 91.815 518.057 92.745C517.607 93.645 517.382 94.725 517.382 95.985V108H511.307ZM549.851 108V85.32H555.926V108H549.851ZM552.911 82.215C551.831 82.215 550.931 81.9 550.211 81.27C549.521 80.61 549.176 79.785 549.176 78.795C549.176 77.805 549.521 76.995 550.211 76.365C550.931 75.705 551.831 75.375 552.911 75.375C554.021 75.375 554.921 75.705 555.611 76.365C556.331 76.995 556.691 77.805 556.691 78.795C556.691 79.785 556.331 80.61 555.611 81.27C554.921 81.9 554.021 82.215 552.911 82.215ZM562.064 108V85.32H567.419L567.869 89.01C568.559 87.75 569.534 86.73 570.794 85.95C572.084 85.17 573.614 84.78 575.384 84.78C577.274 84.78 578.864 85.17 580.154 85.95C581.444 86.73 582.419 87.87 583.079 89.37C583.769 90.87 584.114 92.715 584.114 94.905V108H578.084V95.49C578.084 93.69 577.694 92.31 576.914 91.35C576.164 90.39 574.994 89.91 573.404 89.91C572.384 89.91 571.469 90.15 570.659 90.63C569.879 91.11 569.264 91.8 568.814 92.7C568.364 93.57 568.139 94.635 568.139 95.895V108H562.064Z" fill="white"/>
<path d="M621.549 108.54C619.509 108.54 617.634 108.165 615.924 107.415C614.214 106.665 612.849 105.525 611.829 103.995C610.809 102.465 610.269 100.53 610.209 98.19H616.149C616.179 99.18 616.404 100.08 616.824 100.89C617.244 101.67 617.859 102.3 618.669 102.78C619.479 103.23 620.439 103.455 621.549 103.455C622.599 103.455 623.499 103.245 624.249 102.825C624.999 102.405 625.569 101.85 625.959 101.16C626.349 100.47 626.544 99.675 626.544 98.775C626.544 97.725 626.274 96.855 625.734 96.165C625.224 95.445 624.504 94.905 623.574 94.545C622.674 94.185 621.639 94.005 620.469 94.005H618.129V89.01H620.469C621.939 89.01 623.169 88.665 624.159 87.975C625.179 87.285 625.689 86.25 625.689 84.87C625.689 83.73 625.314 82.815 624.564 82.125C623.844 81.435 622.824 81.09 621.504 81.09C620.064 81.09 618.939 81.51 618.129 82.35C617.319 83.19 616.869 84.225 616.779 85.455H610.839C610.929 83.475 611.424 81.78 612.324 80.37C613.254 78.93 614.499 77.835 616.059 77.085C617.619 76.335 619.434 75.96 621.504 75.96C623.694 75.96 625.539 76.35 627.039 77.13C628.569 77.88 629.724 78.9 630.504 80.19C631.284 81.48 631.674 82.875 631.674 84.375C631.674 85.605 631.434 86.7 630.954 87.66C630.504 88.62 629.889 89.415 629.109 90.045C628.329 90.675 627.474 91.125 626.544 91.395C627.714 91.635 628.734 92.1 629.604 92.79C630.504 93.45 631.194 94.305 631.674 95.355C632.184 96.405 632.439 97.62 632.439 99C632.439 100.71 632.019 102.3 631.179 103.77C630.369 105.21 629.139 106.365 627.489 107.235C625.869 108.105 623.889 108.54 621.549 108.54ZM648.859 108V76.5H669.559V81.405H654.934V89.64H668.209V94.365H654.934V103.095H669.559V108H648.859ZM682.61 108.54C680.72 108.54 679.16 108.24 677.93 107.64C676.7 107.01 675.785 106.185 675.185 105.165C674.615 104.115 674.33 102.96 674.33 101.7C674.33 100.32 674.675 99.105 675.365 98.055C676.085 97.005 677.15 96.18 678.56 95.58C680 94.98 681.8 94.68 683.96 94.68H689.585C689.585 93.57 689.435 92.655 689.135 91.935C688.835 91.185 688.37 90.63 687.74 90.27C687.11 89.91 686.27 89.73 685.22 89.73C684.08 89.73 683.105 89.985 682.295 90.495C681.515 90.975 681.035 91.725 680.855 92.745H674.96C675.11 91.125 675.635 89.73 676.535 88.56C677.465 87.36 678.68 86.43 680.18 85.77C681.71 85.11 683.405 84.78 685.265 84.78C687.395 84.78 689.24 85.14 690.8 85.86C692.36 86.58 693.56 87.615 694.4 88.965C695.24 90.315 695.66 91.98 695.66 93.96V108H690.53L689.855 104.535C689.525 105.135 689.135 105.675 688.685 106.155C688.235 106.635 687.71 107.055 687.11 107.415C686.51 107.775 685.835 108.045 685.085 108.225C684.335 108.435 683.51 108.54 682.61 108.54ZM684.05 103.86C684.83 103.86 685.52 103.725 686.12 103.455C686.75 103.155 687.29 102.765 687.74 102.285C688.19 101.775 688.535 101.205 688.775 100.575C689.045 99.915 689.225 99.21 689.315 98.46V98.415H684.68C683.75 98.415 682.985 98.535 682.385 98.775C681.815 98.985 681.395 99.3 681.125 99.72C680.855 100.14 680.72 100.62 680.72 101.16C680.72 101.76 680.855 102.255 681.125 102.645C681.395 103.035 681.785 103.335 682.295 103.545C682.805 103.755 683.39 103.86 684.05 103.86ZM710.597 108.54C708.527 108.54 706.727 108.21 705.197 107.55C703.667 106.89 702.467 105.975 701.597 104.805C700.727 103.635 700.232 102.315 700.112 100.845H706.142C706.292 101.415 706.547 101.94 706.907 102.42C707.267 102.87 707.747 103.23 708.347 103.5C708.947 103.77 709.667 103.905 710.507 103.905C711.317 103.905 711.977 103.8 712.487 103.59C712.997 103.35 713.372 103.035 713.612 102.645C713.882 102.255 714.017 101.85 714.017 101.43C714.017 100.8 713.837 100.32 713.477 99.99C713.117 99.63 712.592 99.345 711.902 99.135C711.212 98.925 710.372 98.715 709.382 98.505C708.302 98.295 707.237 98.04 706.187 97.74C705.167 97.41 704.252 97.005 703.442 96.525C702.632 96.045 701.987 95.43 701.507 94.68C701.027 93.93 700.787 93 700.787 91.89C700.787 90.54 701.147 89.34 701.867 88.29C702.587 87.21 703.637 86.355 705.017 85.725C706.397 85.095 708.062 84.78 710.012 84.78C712.742 84.78 714.902 85.395 716.492 86.625C718.082 87.855 719.027 89.55 719.327 91.71H713.612C713.432 91.02 713.027 90.48 712.397 90.09C711.797 89.67 710.987 89.46 709.967 89.46C708.887 89.46 708.062 89.655 707.492 90.045C706.922 90.435 706.637 90.945 706.637 91.575C706.637 91.995 706.817 92.37 707.177 92.7C707.567 93.03 708.107 93.315 708.797 93.555C709.487 93.765 710.327 93.975 711.317 94.185C713.057 94.545 714.587 94.965 715.907 95.445C717.227 95.895 718.262 96.555 719.012 97.425C719.762 98.265 720.137 99.495 720.137 101.115C720.137 102.555 719.747 103.845 718.967 104.985C718.187 106.095 717.077 106.965 715.637 107.595C714.227 108.225 712.547 108.54 710.597 108.54ZM726.971 117.9L732.461 105.48H731.111L722.021 85.32H728.636L735.116 99.945L740.966 85.32H747.401L733.406 117.9H726.971ZM772.82 108.54C770.54 108.54 768.5 108.15 766.7 107.37C764.93 106.59 763.52 105.45 762.47 103.95C761.45 102.45 760.925 100.635 760.895 98.505H767.33C767.36 99.435 767.6 100.275 768.05 101.025C768.5 101.775 769.115 102.375 769.895 102.825C770.705 103.245 771.665 103.455 772.775 103.455C773.735 103.455 774.56 103.305 775.25 103.005C775.97 102.675 776.525 102.225 776.915 101.655C777.305 101.085 777.5 100.41 777.5 99.63C777.5 98.73 777.275 97.98 776.825 97.38C776.405 96.78 775.805 96.27 775.025 95.85C774.275 95.43 773.39 95.055 772.37 94.725C771.38 94.365 770.33 93.99 769.22 93.6C766.73 92.79 764.825 91.71 763.505 90.36C762.215 89.01 761.57 87.225 761.57 85.005C761.57 83.115 762.02 81.495 762.92 80.145C763.85 78.795 765.125 77.76 766.745 77.04C768.365 76.32 770.21 75.96 772.28 75.96C774.41 75.96 776.27 76.335 777.86 77.085C779.48 77.805 780.755 78.855 781.685 80.235C782.645 81.615 783.14 83.235 783.17 85.095H776.69C776.66 84.405 776.45 83.76 776.06 83.16C775.7 82.53 775.19 82.035 774.53 81.675C773.87 81.285 773.09 81.09 772.19 81.09C771.41 81.06 770.69 81.18 770.03 81.45C769.4 81.72 768.89 82.125 768.5 82.665C768.14 83.175 767.96 83.82 767.96 84.6C767.96 85.35 768.14 85.98 768.5 86.49C768.89 87 769.415 87.45 770.075 87.84C770.735 88.2 771.515 88.545 772.415 88.875C773.315 89.175 774.29 89.49 775.34 89.82C776.9 90.36 778.34 91.005 779.66 91.755C780.98 92.475 782.03 93.42 782.81 94.59C783.59 95.76 783.98 97.305 783.98 99.225C783.98 100.875 783.545 102.405 782.675 103.815C781.805 105.225 780.545 106.365 778.895 107.235C777.275 108.105 775.25 108.54 772.82 108.54ZM799.213 108C797.623 108 796.228 107.76 795.028 107.28C793.858 106.77 792.943 105.945 792.283 104.805C791.623 103.635 791.293 102.045 791.293 100.035V90.405H787.423V85.32H791.293L791.968 79.155H797.368V85.32H803.353V90.405H797.368V100.125C797.368 101.145 797.593 101.85 798.043 102.24C798.493 102.63 799.258 102.825 800.338 102.825H803.308V108H799.213ZM818.784 108.54C816.504 108.54 814.479 108.06 812.709 107.1C810.969 106.11 809.604 104.745 808.614 103.005C807.654 101.235 807.174 99.195 807.174 96.885C807.174 94.515 807.654 92.43 808.614 90.63C809.604 88.8 810.969 87.375 812.709 86.355C814.449 85.305 816.474 84.78 818.784 84.78C821.034 84.78 822.999 85.275 824.679 86.265C826.359 87.255 827.664 88.59 828.594 90.27C829.524 91.95 829.989 93.855 829.989 95.985C829.989 96.285 829.989 96.63 829.989 97.02C829.989 97.38 829.959 97.755 829.899 98.145H811.494V94.455H823.869C823.779 92.985 823.254 91.83 822.294 90.99C821.364 90.15 820.194 89.73 818.784 89.73C817.764 89.73 816.819 89.97 815.949 90.45C815.079 90.9 814.389 91.605 813.879 92.565C813.399 93.525 813.159 94.74 813.159 96.21V97.515C813.159 98.745 813.384 99.825 813.834 100.755C814.314 101.655 814.974 102.36 815.814 102.87C816.654 103.35 817.629 103.59 818.739 103.59C819.849 103.59 820.764 103.35 821.484 102.87C822.234 102.39 822.789 101.775 823.149 101.025H829.359C828.939 102.435 828.234 103.71 827.244 104.85C826.254 105.99 825.039 106.89 823.599 107.55C822.159 108.21 820.554 108.54 818.784 108.54ZM834.965 117.9V85.32H840.365L841.04 88.47C841.52 87.81 842.09 87.21 842.75 86.67C843.41 86.1 844.19 85.65 845.09 85.32C846.02 84.96 847.1 84.78 848.33 84.78C850.46 84.78 852.335 85.305 853.955 86.355C855.575 87.405 856.85 88.83 857.78 90.63C858.74 92.4 859.22 94.425 859.22 96.705C859.22 98.985 858.74 101.025 857.78 102.825C856.82 104.595 855.53 105.99 853.91 107.01C852.29 108.03 850.445 108.54 848.375 108.54C846.695 108.54 845.24 108.24 844.01 107.64C842.81 107.01 841.82 106.155 841.04 105.075V117.9H834.965ZM846.935 103.23C848.135 103.23 849.185 102.96 850.085 102.42C851.015 101.88 851.735 101.115 852.245 100.125C852.755 99.135 853.01 97.995 853.01 96.705C853.01 95.415 852.755 94.275 852.245 93.285C851.735 92.265 851.015 91.485 850.085 90.945C849.185 90.375 848.135 90.09 846.935 90.09C845.765 90.09 844.715 90.375 843.785 90.945C842.885 91.485 842.165 92.25 841.625 93.24C841.115 94.23 840.86 95.37 840.86 96.66C840.86 97.95 841.115 99.105 841.625 100.125C842.165 101.115 842.885 101.88 843.785 102.42C844.715 102.96 845.765 103.23 846.935 103.23ZM873.722 108.54C871.652 108.54 869.852 108.21 868.322 107.55C866.792 106.89 865.592 105.975 864.722 104.805C863.852 103.635 863.357 102.315 863.237 100.845H869.267C869.417 101.415 869.672 101.94 870.032 102.42C870.392 102.87 870.872 103.23 871.472 103.5C872.072 103.77 872.792 103.905 873.632 103.905C874.442 103.905 875.102 103.8 875.612 103.59C876.122 103.35 876.497 103.035 876.737 102.645C877.007 102.255 877.142 101.85 877.142 101.43C877.142 100.8 876.962 100.32 876.602 99.99C876.242 99.63 875.717 99.345 875.027 99.135C874.337 98.925 873.497 98.715 872.507 98.505C871.427 98.295 870.362 98.04 869.312 97.74C868.292 97.41 867.377 97.005 866.567 96.525C865.757 96.045 865.112 95.43 864.632 94.68C864.152 93.93 863.912 93 863.912 91.89C863.912 90.54 864.272 89.34 864.992 88.29C865.712 87.21 866.762 86.355 868.142 85.725C869.522 85.095 871.187 84.78 873.137 84.78C875.867 84.78 878.027 85.395 879.617 86.625C881.207 87.855 882.152 89.55 882.452 91.71H876.737C876.557 91.02 876.152 90.48 875.522 90.09C874.922 89.67 874.112 89.46 873.092 89.46C872.012 89.46 871.187 89.655 870.617 90.045C870.047 90.435 869.762 90.945 869.762 91.575C869.762 91.995 869.942 92.37 870.302 92.7C870.692 93.03 871.232 93.315 871.922 93.555C872.612 93.765 873.452 93.975 874.442 94.185C876.182 94.545 877.712 94.965 879.032 95.445C880.352 95.895 881.387 96.555 882.137 97.425C882.887 98.265 883.262 99.495 883.262 101.115C883.262 102.555 882.872 103.845 882.092 104.985C881.312 106.095 880.202 106.965 878.762 107.595C877.352 108.225 875.672 108.54 873.722 108.54ZM889.797 97.74L889.122 76.5H895.647L894.972 97.74H889.797ZM892.407 108.225C891.297 108.225 890.382 107.895 889.662 107.235C888.972 106.545 888.627 105.705 888.627 104.715C888.627 103.725 888.972 102.9 889.662 102.24C890.382 101.55 891.297 101.205 892.407 101.205C893.517 101.205 894.417 101.55 895.107 102.24C895.797 102.9 896.142 103.725 896.142 104.715C896.142 105.705 895.797 106.545 895.107 107.235C894.417 107.895 893.517 108.225 892.407 108.225Z" fill="#FFD5DF"/>
<defs>
<linearGradient id="paint0_linear_232_786" x1="902.011" y1="129.574" x2="771.219" y2="239.022" gradientUnits="userSpaceOnUse">
<stop stop-color="#B79EFF"/>
<stop offset="1" stop-color="#FA7596" stop-opacity="0"/>
</linearGradient>
</defs>
</svg>
